<?xml version="1.0" standalone="no"?>
<!DOCTYPE svg PUBLIC "-//W3C//DTD SVG 1.1//EN" "http://www.w3.org/Graphics/SVG/1.1/DTD/svg11.dtd" >
<!--
2013-9-30: Created.
-->
<svg>
<metadata>
Created by iconfont
</metadata>
<defs>

<font id="iconfont" horiz-adv-x="1024" >
  <font-face
    font-family="iconfont"
    font-weight="500"
    font-stretch="normal"
    units-per-em="1024"
    ascent="896"
    descent="-128"
  />
    <missing-glyph />
    
    <glyph glyph-name="x" unicode="x" horiz-adv-x="1001"
d="M281 543q-27 -1 -53 -1h-83q-18 0 -36.5 -6t-32.5 -18.5t-23 -32t-9 -45.5v-76h912v41q0 16 -0.5 30t-0.5 18q0 13 -5 29t-17 29.5t-31.5 22.5t-49.5 9h-133v-97h-438v97zM955 310v-52q0 -23 0.5 -52t0.5 -58t-10.5 -47.5t-26 -30t-33 -16t-31.5 -4.5q-14 -1 -29.5 -0.5
t-29.5 0.5h-32l-45 128h-439l-44 -128h-29h-34q-20 0 -45 1q-25 0 -41 9.5t-25.5 23t-13.5 29.5t-4 30v167h911zM163 247q-12 0 -21 -8.5t-9 -21.5t9 -21.5t21 -8.5q13 0 22 8.5t9 21.5t-9 21.5t-22 8.5zM316 123q-8 -26 -14 -48q-5 -19 -10.5 -37t-7.5 -25t-3 -15t1 -14.5
t9.5 -10.5t21.5 -4h37h67h81h80h64h36q23 0 34 12t2 38q-5 13 -9.5 30.5t-9.5 34.5q-5 19 -11 39h-368zM336 498v228q0 11 2.5 23t10 21.5t20.5 15.5t34 6h188q31 0 51.5 -14.5t20.5 -52.5v-227h-327z" />
    

    
    <glyph glyph-name="warning" unicode="&#58944;" d="M511.997953 866.968803c-266.73704 0-482.966757-216.231763-482.966757-482.969826s216.229716-482.969826 482.966757-482.969826c266.738064 0 482.969826 216.231763 482.969826 482.969826S778.73704 866.968803 511.997953 866.968803zM511.997953 108.015342c-30.483268 0-55.193043 24.710798-55.193043 55.196113 0 30.482245 24.709775 55.196113 55.193043 55.196113 30.485315 0 55.196113-24.714891 55.196113-55.196113C567.19509 132.727163 542.483268 108.015342 511.997953 108.015342zM539.596522 315.002556c0-22.867824-12.355399-41.397852-27.598568-41.397852-15.241123 0-27.598568 18.529005-27.598568 41.397852l-27.594475 303.58118c0 22.861684 39.951921 41.397852 55.193043 41.397852 15.243169 0 55.196113-18.536168 55.196113-41.397852L539.596522 315.002556z"  horiz-adv-x="1024" />

    
    <glyph glyph-name="paixu" unicode="&#59004;" d="M403.616 33.152c-13.248 0-24 10.752-24 24L379.616 652.864l-184.512-184.512c-9.376-9.376-24.576-9.376-33.952 0s-9.376 24.576 0 33.952l225.472 225.472c6.88 6.88 17.184 8.896 26.144 5.216 8.96-3.712 14.816-12.48 14.816-22.176l0-653.664C427.616 43.904 416.896 33.152 403.616 33.152zM620.352 33.152c-3.104 0-6.208 0.608-9.184 1.824-8.96 3.712-14.816 12.48-14.816 22.176L596.352 710.816c0 13.248 10.752 24 24 24s24-10.752 24-24l0-595.712 184.544 184.544c9.376 9.376 24.576 9.376 33.952 0s9.376-24.576 0-33.952l-225.504-225.504C632.736 35.584 626.592 33.152 620.352 33.152z"  horiz-adv-x="1024" />

    
    <glyph glyph-name="shaixuan" unicode="&#58947;" d="M897.325886 735.479399c0 17.66313-14.318801 31.981931-31.981931 31.981931L161.743511 767.461331c-17.664153 0-31.981931-14.318801-31.981931-31.981931 0-8.831565 3.578677-16.827048 9.36678-22.614128l246.486624-246.487647 0-242.608104 0 0 0 0c0-8.492834 3.316698-16.206894 8.717972-21.933596l-0.01535-0.016374 64.629044-64.629044c5.78708-5.78708 13.782563-9.36678 22.614128-9.36678 17.664153 0 31.981931 14.318801 31.981931 31.981931 0 8.831565-3.580724 16.826024-9.367804 22.615151l-54.597082 54.597082L449.577824 479.621902c0 0.001023 0 0.002047 0 0.002047 0 8.493857-3.315674 16.206894-8.716949 21.933596l0.016374 0.016374L238.953698 703.497468l549.179046 0L586.210218 501.573918l0.014327-0.016374c-5.400251-5.726702-8.716949-13.439738-8.716949-21.933596L577.507596 32.584049l0.01842 0c-0.00614-0.234349-0.01842-0.468697-0.01842-0.705092 0-17.66313 14.318801-31.981931 31.981931-31.981931s31.981931 14.318801 31.981931 31.981931c0 0.236395-0.01228 0.470744-0.01842 0.705092l0.01842 0L641.471458 466.377624l246.486624 246.487647C893.746186 718.652352 897.325886 726.647835 897.325886 735.479399z"  horiz-adv-x="1024" />

    
    <glyph glyph-name="eyec" unicode="&#58916;" d="M812.087 398.775l64.182-60.133c10.291-9.642 26.45-9.116 36.092 1.175l30.72 32.788c9.642 10.291 9.116 26.45-1.175 36.092l-62.811 58.849c20.924 25.341 40.477 53.112 58.564 83.258l-82.318 49.392c-82.628-137.714-201.757-216.696-326.841-216.696s-244.212 78.982-326.84 216.696l-82.319-49.392c18.088-30.146 37.641-57.917 58.564-83.258l-62.811-58.849c-10.291-9.642-10.817-25.801-1.175-36.092l30.72-32.788c9.642-10.291 25.801-10.817 36.092-1.175l64.182 60.133c18.809-16.216 38.44-30.833 58.859-43.797 1.102-0.7 2.213-1.38 3.319-2.069l-43.889-96.813c-5.823-12.844-0.131-27.977 12.713-33.799l40.922-18.552c12.844-5.823 27.977-0.131 33.799 12.713l42.87 94.566c6.581-2.337 13.196-4.513 19.842-6.504 22.095-6.62 44.552-11.311 67.152-14.073v-105.412c0-14.102 11.432-25.534 25.535-25.534h44.931c14.102 0 25.534 11.432 25.534 25.534v105.411c22.6 2.762 45.057 7.454 67.152 14.073 6.646 1.991 13.26 4.167 19.841 6.504l42.87-94.566c5.823-12.844 20.955-18.536 33.799-12.713l40.922 18.552c12.844 5.823 18.536 20.955 12.713 33.799l-43.889 96.813c1.106 0.69 2.217 1.369 3.319 2.069 20.421 12.965 40.052 27.582 58.86 43.798z"  horiz-adv-x="1024" />

    
    <glyph glyph-name="myicon-eye" unicode="&#58920;" d="M512 640.314c-247.616 0-400.653-214.239-438.349-273.681-5.856-9.234-5.882-21.043-0.058-30.298 37.432-59.487 189.479-273.649 438.407-273.649 248.841 0 401.609 214.011 439.315 273.586 5.88 9.29 5.855 21.153-0.058 30.423-37.968 59.528-191.727 273.619-439.257 273.619zM600.5 459.5c0-24.262-19.738-44-44-44s-44 19.738-44 44 19.738 44 44 44c24.262 0 44-19.738 44-44zM778.528 276.687c-36.984-35.141-76.19-62.92-116.529-82.565-48.282-23.513-98.749-35.436-149.999-35.436-50.306 0-99.821 11.488-147.17 34.144-39.739 19.015-78.401 45.974-114.911 80.129-22.216 20.783-41.001 41.798-56.136 60.515-8.428 10.423-8.391 25.268 0.059 35.673 15.254 18.786 34.183 39.894 56.544 60.765 14.374 13.417 29.071 25.707 44.018 36.861-3.857-16.468-5.904-33.632-5.904-51.275 0-123.712 100.288-224 224-224s224 100.288 224 224c0 17.428-1.991 34.391-5.757 50.675 14.76-11.028 29.278-23.161 43.488-36.383 22.372-20.817 41.333-41.867 56.635-60.617 8.495-10.409 8.528-25.372 0.049-35.793-14.269-17.535-31.781-37.113-52.387-56.693z"  horiz-adv-x="1024" />

    
    <glyph glyph-name="z-eyeCloses" unicode="&#58966;" d="M919.028 399.59c0.002 0.034 0.006 0.068 0.008 0.102h-0.014c-0.147 8.669-8.084 16.771-18.133 16.771 0 0-11.321 1.216-19.507-12.728l-3.081-5.545c-0.32-0.513-0.607-1.005-0.867-1.483 0 0-0.003-0.001-0.003-0.002-58.263-107.078-196.415-215.58-347.183-215.58-149.994 0-287.654 107.654-346.637 214.383-0.385 0.807-0.849 1.662-1.422 2.58l-0.874 1.602h-0.016l-2.191 3.944c-8.187 13.944-19.507 12.728-19.507 12.728-10.009 0-17.919-8.038-18.127-16.669h-0.026c0.002-0.053 0.013-0.106 0.016-0.159 0-0.062-0.010-0.125-0.010-0.187 0-2.695 0.784-5.23 2.157-7.454 0.019-0.037 0.034-0.077 0.053-0.114l6.968-12.791c25.745-47.026 63.601-91.762 109.018-129.412l-83.070-51.911c-8.155-5.095-10.633-15.83-5.537-23.982 5.095-8.153 15.831-10.632 23.983-5.536l94.067 58.777c4.235-3.013 8.513-5.976 12.845-8.861 38.391-25.607 78.636-44.805 119.456-57.193l-40.838-125.695c-2.968-9.142 2.031-18.959 11.173-21.931 9.145-2.97 18.962 2.032 21.933 11.175l41.526 127.8c25.031-5.249 50.146-7.935 75.055-7.935 24.914 0 50.027 2.686 75.054 7.931l41.523-127.796c2.973-9.142 12.788-14.144 21.933-11.175 9.143 2.975 14.142 12.789 11.173 21.931l-40.839 125.69c40.824 12.387 81.060 31.59 119.435 57.199 4.336 2.89 8.613 5.854 12.847 8.872l94.086-58.79c8.151-5.097 18.888-2.617 23.982 5.536 5.095 8.153 2.618 18.887-5.535 23.982l-83.107 51.931c45.332 37.621 83.048 82.296 108.617 129.222l7.222 12.625c0.253 0.442 0.479 0.893 0.692 1.35 1.088 2.026 1.713 4.276 1.713 6.657-0.002 0.048-0.010 0.095-0.010 0.142z"  horiz-adv-x="1024" />

    
    <glyph glyph-name="iconqu" unicode="&#58956;" d="M884.765 201.343c-16.050 9.416-36.575 4.23-46.019-11.654-68.291-114.611-193.521-185.796-326.719-185.796-177.798 0-327.484 122.663-368.808 287.824l48.748-48.722c13.101-13.101 34.337-13.101 47.438 0 13.047 13.101 13.047 34.337-0.054 47.438l-117.313 117.285c-9.554 9.58-23.965 12.446-36.521 7.26s-20.689-17.414-20.689-30.98c0-246.581 200.617-447.198 447.198-447.198 156.727 0 304.010 83.74 384.366 218.55 9.444 15.912 4.258 36.493-11.628 45.991zM512.027 831.199c-172.394 0-326.501-96.296-402.107-251.304-8.134-16.65-1.201-36.739 15.449-44.845 16.431-8.107 36.739-1.283 44.818 15.421 64.307 131.779 195.267 213.637 341.841 213.637 177.744 0 327.428-122.663 368.754-287.797l-59.557 59.53c-13.101 13.101-34.283 13.101-47.384 0-13.101-13.101-13.101-34.337 0-47.438l128.122-128.122c6.387-6.414 14.958-9.826 23.692-9.826 4.312 0 8.68 0.846 12.828 2.565 12.556 5.186 20.689 17.414 20.689 30.98 0.001 246.582-200.561 447.199-447.143 447.199zM304.095 258.798l10.536-43.071c46.129 7.042 92.693 15.585 139.75 25.657v-71.922h42.635v81.093c17.687 4.286 31.116 7.643 40.288 10.071v43.536l-40.288-10.536-0 244.698h32.972v-26.121h14.684c6.059-75.47 25.494-144.799 58.192-208.041-23.528-39.086-53.334-72.686-89.363-100.8l29.752-33.9c32.371 25.957 60.322 56.801 83.85 92.557 20.198-32.071 44.327-62.614 72.441-91.657l29.315 33.463c-31.498 29.614-57.755 62.314-78.827 98.043 29.642 58.056 49.513 128.777 59.557 212.163v39.851l-178.673 0v25.22h-222.726v-40.779h31.662v-274.941l-35.756-4.585zM668.808 512.204c-7.315-59.885-21.673-114.42-43.071-163.578-22 49.485-35.702 103.993-41.215 163.578h84.286zM381.994 538.325h72.386v-61.414l-72.386-0v61.414zM381.994 437.498h72.386v-60.923l-72.386 0v60.923zM381.994 337.626h72.386v-54.072c-23.2-4.885-47.329-9.472-72.386-13.756v67.828z"  horiz-adv-x="1024" />

    
    <glyph glyph-name="yinxing" unicode="&#59048;" d="M573.086 511.51l-62.314-77.138-62.323 77.138h-35.873l80.302-101.409h-49.398v-24.166h52.606v-27.511h-52.606v-24.171h52.606v-60.113h29.366v60.113h52.604v24.171h-52.604v27.511h52.604v24.166h-49.398l80.309 101.409zM510.835 893.051c-283.797 0-513.858-227.203-513.858-507.474 0-280.268 230.060-507.476 513.858-507.476 283.791 0 513.858 227.209 513.858 507.476 0 280.271-230.066 507.474-513.858 507.474zM778.006 203.258h-534.478v26.993h37.403v27.001h23.382v263.141h-32.014v30.812l221.171 81.789h34.585l221.179-81.789v-30.812h-32.014v-263.14h23.376v-27.001h37.409l0.001-26.994z"  horiz-adv-x="1024" />

    
    <glyph glyph-name="loading" unicode="&#59103;" d="M464.946334 845.999213c0 25.732058 20.87647 46.608527 47.053666 46.608527 25.974581 0 47.053666-21.200858 47.053666-46.608527L559.053666 656.894274c0-25.732058-20.87647-46.608527-47.053666-46.608527-25.974581 0-47.053666 21.200858-47.053666 46.608527L464.946334 845.999213 464.946334 845.999213zM702.236716 807.64365c12.866029 22.292726 41.389666 29.939893 64.046688 16.83134 22.49534-12.986779 30.141484-41.915645 17.438161-63.883983l-94.552469-163.777087c-12.866029-22.292726-41.389666-29.939893-64.046688-16.83134-22.49534 12.986779-30.141484 41.915645-17.438161 63.883983L702.236716 807.64365 702.236716 807.64365zM888.589984 655.761474c22.292726 12.866029 50.816363 5.218862 63.883983-17.438161 12.987802-22.49534 5.13802-51.382251-16.830317-64.046688l-163.777087-94.552469c-22.292726-12.866029-50.816363-5.218862-63.883983 17.438161-12.986779 22.49534-5.13802 51.382251 16.83134 64.046688L888.589984 655.761474 888.589984 655.761474zM973.999213 431.053666c25.732058 0 46.608527-20.87647 46.608527-47.053666 0-25.974581-21.200858-47.053666-46.608527-47.053666L784.894274 336.946334c-25.732058 0-46.608527 20.87647-46.608527 47.053666 0 25.974581 21.200858 47.053666 46.608527 47.053666L973.999213 431.053666 973.999213 431.053666zM935.64365 193.763284c22.292726-12.866029 29.939893-41.389666 16.830317-64.046688-12.986779-22.49534-41.915645-30.141484-63.883983-17.438161l-163.777087 94.552469c-22.292726 12.866029-29.939893 41.389666-16.83134 64.046688 12.987802 22.49534 41.915645 30.141484 63.883983 17.438161L935.64365 193.763284 935.64365 193.763284zM783.761474 7.410016c12.866029-22.292726 5.218862-50.816363-17.438161-63.883983-22.49534-12.987802-51.382251-5.13802-64.046688 16.830317l-94.552469 163.777087c-12.866029 22.292726-5.218862 50.816363 17.438161 63.883983 22.49534 12.986779 51.382251 5.13802 64.046688-16.83134L783.761474 7.410016 783.761474 7.410016zM559.053666-77.999213c0-25.732058-20.87647-46.608527-47.053666-46.608527-25.974581 0-47.053666 21.200858-47.053666 46.608527L464.946334 111.105726c0 25.732058 20.87647 46.608527 47.053666 46.608527 25.974581 0 47.053666-21.200858 47.053666-46.608527L559.053666-77.999213 559.053666-77.999213zM321.763284-39.64365c-12.866029-22.292726-41.389666-29.939893-64.046688-16.830317-22.49534 12.986779-30.141484 41.915645-17.438161 63.883983l94.552469 163.777087c12.866029 22.292726 41.389666 29.939893 64.046688 16.83134 22.49534-12.987802 30.141484-41.915645 17.438161-63.883983L321.763284-39.64365 321.763284-39.64365zM135.410016 112.238526c-22.292726-12.866029-50.816363-5.218862-63.883983 17.438161-12.986779 22.49534-5.13802 51.382251 16.83134 64.046688l163.777087 94.552469c22.292726 12.866029 50.816363 5.218862 63.883983-17.438161 12.986779-22.49534 5.13802-51.382251-16.83134-64.046688L135.410016 112.238526 135.410016 112.238526zM50.000787 336.946334c-25.732058 0-46.608527 20.87647-46.608527 47.053666 0 25.974581 21.200858 47.053666 46.608527 47.053666l189.103916 0c25.732058 0 46.608527-20.87647 46.608527-47.053666 0-25.974581-21.200858-47.053666-46.608527-47.053666L50.000787 336.946334 50.000787 336.946334zM88.35635 574.236716c-22.292726 12.866029-29.939893 41.389666-16.83134 64.046688 12.986779 22.49534 41.915645 30.141484 63.883983 17.438161l163.777087-94.552469c22.292726-12.866029 29.939893-41.389666 16.83134-64.046688-12.986779-22.49534-41.915645-30.141484-63.883983-17.438161L88.35635 574.236716 88.35635 574.236716zM240.238526 760.589984c-12.866029 22.292726-5.218862 50.816363 17.438161 63.883983 22.49534 12.986779 51.382251 5.13802 64.046688-16.83134l94.552469-163.777087c12.866029-22.292726 5.218862-50.816363-17.438161-63.883983-22.49534-12.986779-51.382251-5.13802-64.046688 16.83134L240.238526 760.589984 240.238526 760.589984z"  horiz-adv-x="1024" />

    
    <glyph glyph-name="myicon-more" unicode="&#58893;" d="M512 597.715c66.534 0 120.471 53.937 120.471 120.471s-53.937 120.471-120.471 120.471c-66.534 0-120.471-53.937-120.471-120.471 0-66.534 53.937-120.471 120.471-120.471zM512 236.303c0 0 0 0 0 0 66.534 0 120.471 53.937 120.471 120.471 0 66.534-53.937 120.471-120.471 120.471-0 0-0 0-0 0-66.534-0-120.471-53.937-120.471-120.471 0-66.534 53.937-120.471 120.471-120.471zM512-125.109c66.534 0 120.471 53.937 120.471 120.471s-53.937 120.471-120.471 120.471c-66.534 0-120.471-53.937-120.471-120.471 0-66.534 53.937-120.471 120.471-120.471z"  horiz-adv-x="1024" />

    
    <glyph glyph-name="myicon-tel" unicode="&#58894;" d="M75.71 691.577s76.48 162.641 205.794 0c129.12-162.835 0-210.562 0-210.562s-86.015-81.442-19.169-134.131c66.993-52.495 229.828-196.113 229.828-196.113s64.511-86.015 133.839-23.839c86.21 71.517 119.682 83.68 186.626 33.423 116.811-87.086 153.3-174.706-23.693-244.083-196.259-95.697-545.574 234.547-545.574 234.547s-344.742 330.195-167.7 540.757zM520.77 607.41s-64.511-6.811-52.738 60.425c5.4 30.553 57.408 40.575 105.281 26.028 48.165-14.303 227.444-93.216 234.693-294.339 0 0-13.282-56.435-55.316-45.246-45.197 12.017-33.277 97.545-35.856 114.184-2.287 16.736-64.365 146.099-196.064 138.948zM645.074 782.068s-78.912-8.222-64.365 73.706c6.471 37.656 70.301 49.916 129.071 32.353 58.576-17.66 278.236-114.281 286.896-360.31 0 0-18.779-76.771-67.139-55.803-42.229 18.585-44.37 122.406-47.192 142.937-3.162 20.482-75.798 175.922-237.272 167.117z"  horiz-adv-x="1024" />

    
    <glyph glyph-name="myicon-arrow-down" unicode="&#58895;" d="M154.317 896l-154.317-160.87 819.2-853.402 819.2 853.402-76.39 82.944-742.81-770.56-742.707 770.458z"  horiz-adv-x="1643" />

    
    <glyph glyph-name="myicon-arrow-right2" unicode="&#58896;" d="M281.944 896l506.902-486.604-506.902-486.604-49.217 45.416 457.686 441.188-457.686 441.188z"  horiz-adv-x="1024" />

    
    <glyph glyph-name="myicon-search" unicode="&#58897;" d="M620.788 184.954l295.497-296.277c8.832-8.862 21.050-14.346 34.548-14.346 26.936 0 48.772 21.836 48.772 48.772 0 13.438-5.434 25.606-14.225 34.427l-295.983 296.715c46.999 61.583 75.302 139.629 75.302 224.285 0 102.41-41.42 195.146-108.422 262.369-66.913 67.141-159.489 108.69-261.768 108.69-102.28 0-194.855-41.549-261.768-108.689-66.984-67.206-108.394-159.917-108.394-262.301 0-102.383 41.409-195.095 108.393-262.3 66.923-67.153 159.513-108.71 261.809-108.71 85.624 0 164.447 29.115 227.111 77.984zM587.24 285.16c-49.272-49.438-117.429-80.028-192.731-80.028s-143.46 30.59-192.724 80.021c-49.383 49.563-79.91 117.927-79.91 193.422 0 75.494 30.527 143.859 79.911 193.422 49.258 49.442 117.418 80.040 192.723 80.040 75.306 0 143.465-30.598 192.723-80.040 49.384-49.564 79.911-117.928 79.911-193.422 0-75.494-30.527-143.859-79.911-193.422z"  horiz-adv-x="1024" />

    
    <glyph glyph-name="myicon-share" unicode="&#58898;" d="M619.035 514.102c-15.404-0.508-27.705-13.092-27.756-28.561-0-15.309 12.773-28.459 27.756-28.459h162.223c44.894 0 81.165-37.349 81.165-83.375v-336.519c0-46.080-36.271-83.375-81.112-83.375h-590.74c-44.84 0-81.165 37.295-81.165 83.375v338.728c0 46.080 36.325 83.375 81.165 83.375h192.189c15.404 0.508 27.705 13.092 27.756 28.561-0.082 15.454-12.373 28.008-27.712 28.512l-192.232 0.001c-74.752-0.054-136.677-63.65-136.677-140.504v-336.465c0-76.8 61.925-140.396 136.677-140.396h590.686c74.806 0 136.731 63.596 136.731 140.396v336.519c-2.156 76.8-61.979 138.24-136.677 138.24h-162.277zM497.233 844.638c8.623 0 15.953-3.072 21.881-9.27l195.476-160.714c5.928-6.198 8.893-13.797 8.893-22.851 0-9.216-2.91-16.869-8.785-22.959-5.356-5.653-12.917-9.172-21.3-9.172-0.261 0-0.522 0.003-0.782 0.010-0.135-0.005-0.34-0.007-0.546-0.007-8.418 0-16.005 3.561-21.336 9.259l-142.675 105.92v-567.835c0.003-0.173 0.005-0.377 0.005-0.582 0-8.633-3.458-16.458-9.064-22.167-5.342-5.803-12.982-9.429-21.469-9.429-0.124 0-0.248 0.001-0.372 0.002-0.086-0.002-0.21-0.002-0.335-0.002-8.487 0-16.127 3.626-21.455 9.413-5.62 5.724-9.078 13.549-9.078 22.182 0 0.205 0.002 0.409 0.006 0.612l-0 567.804-142.605-105.903c-5.513-5.746-13.254-9.316-21.83-9.316-8.628 0-16.412 3.614-21.92 9.411-5.614 5.716-9.072 13.542-9.072 22.175 0 0.205 0.002 0.409 0.006 0.612-0.002 0.077-0.002 0.205-0.002 0.333 0 8.707 3.385 16.624 8.911 22.506l195.46 160.697c5.349 5.746 12.956 9.329 21.4 9.329 0.188 0 0.376-0.002 0.563-0.005z"  horiz-adv-x="1024" />

    
    <glyph glyph-name="myicon-care" unicode="&#58899;" d="M928.614 492.032l-279.296 41.626-11.776 24.422-109.619 227.738c-3.26 6.137-9.611 10.245-16.922 10.245-0.153 0-0.305-0.002-0.458-0.005-0.109 0.004-0.264 0.006-0.419 0.006-7.282 0-13.609-4.087-16.814-10.091l-121.445-252.314-279.398-41.574c-7.034-0.9-12.755-5.698-14.979-12.127-0.387-1.138-0.686-2.854-0.686-4.64 0-4.485 1.885-8.53 4.905-11.386l203.579-203.425-47.206-282.112c-0.113-0.724-0.177-1.558-0.177-2.408 0-5.698 2.891-10.721 7.286-13.683 3.271-2.273 7.256-3.61 11.552-3.61 3.723 0 7.211 1.003 10.209 2.754l243.616 127.078 244.070-127.283c3.072-1.638 6.554-2.509 9.882-2.509 4.096 0 8.090 1.229 11.162 3.328 4.549 2.962 7.514 8.022 7.514 13.776 0 0.885-0.070 1.753-0.205 2.599l-47.194 282.070 18.688 18.688 185.037 184.781c2.958 2.87 4.794 6.882 4.794 11.323 0 1.774-0.293 3.479-0.833 5.070-2.45 6.347-8.285 10.993-15.284 11.722zM936.090 542.72c25.856-3.789 47.462-21.504 55.808-45.773 8.294-24.269 2.048-51.046-16.282-69.274l-184.986-184.73 42.906-256.154c0.565-3.282 0.889-7.063 0.889-10.919 0-23.119-11.617-43.524-29.332-55.698-11.538-7.999-25.556-12.69-40.67-12.69-12.378 0-24.021 3.146-34.173 8.683l-219.683 114.604-220.058-114.79c-9.788-5.364-21.446-8.519-33.841-8.519-15.096 0-29.099 4.68-40.637 12.668-17.701 12.222-29.308 32.663-29.308 55.815 0 3.83 0.318 7.585 0.928 11.241l42.749 255.757-184.832 184.73c-12.29 12.123-19.903 28.961-19.903 47.576 0 7.77 1.326 15.229 3.764 22.165 8.253 23.801 29.706 41.516 55.665 45.305l252.416 37.581 109.67 227.789c11.728 23.393 35.521 39.17 62.998 39.17 0.172 0 0.344-0.001 0.516-0.002 27.11 0 51.839-15.257 63.359-39.168l109.67-227.84 252.416-37.53z"  horiz-adv-x="1024" />

    
    <glyph glyph-name="myicon-link" unicode="&#58900;" d="M604.314 384.87l57.6-57.6c9.235-9.367 22.064-15.17 36.249-15.17 14.109 0 26.876 5.741 36.094 15.014l253.647 253.647c9.213 9.249 14.91 22.007 14.91 36.096 0 14.165-5.758 26.985-15.061 36.248l-209.103 209.103c-9.233 9.352-22.052 15.145-36.223 15.145-14.121 0-26.899-5.751-36.119-15.039l-253.597-253.545c-9.229-9.251-14.935-22.020-14.935-36.122 0-14.152 5.748-26.962 15.036-36.223l57.652-57.704 36.198 36.25-26.419 26.368c-9.322 9.228-15.094 22.027-15.094 36.174 0 14.223 5.834 27.083 15.24 36.318l180.795 180.795c9.312 9.265 22.15 14.992 36.327 14.992 14.1 0 26.877-5.666 36.178-14.844l146.631-146.682c9.322-9.228 15.094-22.027 15.094-36.173 0-14.197-5.813-27.037-15.19-36.268l-180.896-180.896c-9.309-9.25-22.138-14.967-36.302-14.967-14.087 0-26.854 5.655-36.153 14.82l-26.413 26.413-36.198-36.198zM438.016 406.374l-57.6 57.549c-9.233 9.352-22.052 15.145-36.223 15.145-14.121 0-26.899-5.751-36.119-15.039l-253.597-253.597c-9.229-9.251-14.935-22.020-14.935-36.122 0-14.152 5.748-26.962 15.036-36.223l209.102-209.153c9.233-9.352 22.052-15.145 36.223-15.145 14.121 0 26.899 5.751 36.119 15.039l253.597 253.597c9.229 9.251 14.935 22.020 14.935 36.122 0 14.152-5.748 26.962-15.036 36.223l-57.601 57.652-36.25-36.198 26.419-26.419c9.307-9.226 15.068-22.014 15.068-36.148 0-14.21-5.824-27.060-15.215-36.293l-180.743-180.845c-9.312-9.265-22.15-14.992-36.327-14.992-14.1 0-26.877 5.666-36.178 14.844l-146.682 146.682c-9.322 9.228-15.094 22.027-15.094 36.174 0 14.223 5.834 27.083 15.24 36.318l180.744 180.795c9.312 9.265 22.15 14.992 36.327 14.992 14.1 0 26.877-5.666 36.178-14.844l26.414-26.414 36.198 36.198zM340.173 214.528c-4.044 3.994-6.548 9.538-6.548 15.667 0 6.078 2.463 11.581 6.446 15.565l330.906 330.906c4.011 3.921 9.505 6.341 15.564 6.341 6.11 0 11.646-2.461 15.67-6.445 4.027-3.99 6.521-9.523 6.521-15.64 0-6.091-2.473-11.604-6.471-15.59l-330.906-330.804c-4.011-3.921-9.505-6.341-15.564-6.341-6.11 0-11.646 2.461-15.67 6.445z"  horiz-adv-x="1024" />

    
    <glyph glyph-name="myicon-wrong2" unicode="&#58901;" d="M546.133 435.541l-434.722 434.722c-6.132 5.928-14.496 9.582-23.713 9.582-18.851 0-34.133-15.282-34.133-34.133 0-9.217 3.653-17.581 9.591-23.722l434.713-434.713-434.722-434.722c-5.928-6.132-9.582-14.496-9.582-23.713 0-18.851 15.282-34.133 34.133-34.133 9.217 0 17.581 3.653 23.722 9.591l434.713 434.645 434.722-434.722c6.132-5.928 14.496-9.582 23.713-9.582 18.851 0 34.133 15.282 34.133 34.133 0 9.217-3.653 17.581-9.591 23.722l-434.713 434.781 434.722 434.722c5.928 6.132 9.582 14.496 9.582 23.713 0 18.851-15.282 34.133-34.133 34.133-9.217 0-17.581-3.653-23.722-9.591l-434.713-434.713z"  horiz-adv-x="1092" />

    
    <glyph glyph-name="myicon-serve" unicode="&#58902;" d="M777.752 361.96c0-17.749-0.049-35.547 0.098-53.297 0-4.291 0.39-8.777 1.365-12.922 5.695-24.261 27.151-42.047 52.761-42.047 29.893 0 54.126 24.233 54.126 54.126 0 0.074-0 0.147-0 0.221 0.098 35.926 0.098 71.912 0 107.85 0 0.029 0 0.063 0 0.098 0 29.893-24.233 54.126-54.126 54.126-29.859 0-54.070-24.177-54.126-54.023-0.146-18.047-0.049-36.089-0.049-54.131M236.008 361.472v53.736c0.005 0.261 0.007 0.569 0.007 0.878 0 29.947-24.277 54.223-54.223 54.223-0.020 0-0.039-0-0.059-0-30.083 0-54.025-24.235-54.074-54.857-0.042-15.882-0.065-34.684-0.065-53.492 0-18.807 0.024-37.609 0.071-56.406 1.064-26.163 24.894-49.329 54.134-49.329 29 0 52.679 22.787 54.106 51.433 0.151 18.023 0.103 35.919 0.103 53.815M526.775 849.579c9.070-0.878 18.237-1.658 27.307-2.633 72.993-7.575 138.858-32.931 194.793-71.624 78.127-45.258 145.613-133.566 177.211-249.034 9.655-35.157 14.043-71.095 14.19-107.52 0.146-36.718 0-73.435 0.049-110.153 0-17.554-4.096-34.133-11.605-50.030-2.974-6.339-4.34-13.41-6.339-20.187-48.042-157.723-179.394-275.662-341.539-303.565 2.644 0.412-8.181-1.295-19.055-2.66-3.755-0.488-4.876-2.341-6.095-5.364-11.888-30.987-41.396-52.585-75.949-52.585-37.487 0-69.036 25.422-78.349 59.966-1.847 6.803-2.833 13.963-2.833 21.353 0 34.781 21.845 64.46 52.563 76.066 8.928 3.388 18.608 5.242 28.721 5.242 32.045 0 59.741-18.621 72.857-45.633 2.161-4.528 4.209-5.455 8.354-4.772 131.121 21.943 226.743 92.306 287.403 210.505l1.755 3.755c-4.291-0.39-7.948-0.975-11.703-1.122-1.939-0.124-4.204-0.194-6.485-0.194-59.866 0-108.397 48.531-108.398 108.397-0.098 35.938-0.049 71.924-0 107.91-0.001 0.188-0.002 0.411-0.002 0.634 0 59.651 48.357 108.008 108.008 108.008 2.282 0 4.548-0.071 6.795-0.21 10.030-0.57 20.221-3.983 30.51-6.129 0.975-0.195 1.95-0.585 3.023-0.975-33.792 135.314-165.937 273.506-355.523 278.138-194.56 4.73-337.432-132.632-374.638-277.65 7.461 1.853 14.97 4.047 22.577 5.461 56.613 10.484 114.542-30.184 123.855-86.991 1.219-7.217 1.804-14.629 1.853-21.943 0.195-35.255 0.195-70.461 0.049-105.667 0.002-0.221 0.003-0.482 0.003-0.744 0-52.088-36.789-95.583-85.8-105.92-59.611-12.803-119.246 27.67-129.096 87.159-1.082 5.927-1.706 12.753-1.716 19.722-0.137 36.598-0.869 74.534 0.107 112.471 3.511 138.825 59.88 251.806 168.57 338.066 55.589 44.081 119.125 71.436 188.952 83.724 16.823 2.926 33.987 3.998 51.005 5.949 1.658 0.195 3.267 0.488 4.876 0.78h39.741z"  horiz-adv-x="1024" />

    
    <glyph glyph-name="myicon-question" unicode="&#58903;" d="M699.2 411.84c-13.888-21.76-43.392-51.584-88.576-89.152-23.424-19.456-37.952-35.2-43.584-47.040-5.696-11.776-8.256-33.024-7.68-63.488h-100.928c-0.289 12.953-0.454 28.232-0.456 43.548 0.072 15.524 5.448 42.34 16.264 63.396 10.816 21.056 32.384 44.8 64.768 71.040 32.384 26.304 51.84 43.52 58.112 51.712 9.728 12.928 14.656 27.136 14.656 42.688 0 21.504-8.704 39.936-25.984 55.296s-40.576 23.040-69.824 23.040c-28.224 0-51.84-8-70.848-24-19.008-16-35.264-51.264-39.168-73.152-3.648-20.608-103.040-29.312-101.888 12.48 1.216 41.792 23.040 87.104 60.288 120.064 37.312 32.896 86.208 49.28 146.816 49.28 63.744 0 114.496-16.64 152.128-49.92 37.696-33.28 56.512-72.064 56.512-116.288-0.051-25.905-7.789-49.992-21.054-70.114zM508.928 74.048c-0.153-0.002-0.333-0.003-0.514-0.003-27.413 0-49.666 22.097-49.918 49.451 0.252 27.402 22.504 49.499 49.918 49.499 0.181 0 0.361-0.001 0.541-0.003 0.125 0.002 0.306 0.003 0.486 0.003 27.413 0 49.666-22.097 49.918-49.451-0.252-27.402-22.504-49.499-49.918-49.499-0.181 0-0.361 0.001-0.541 0.003zM512 835.008c-265.097 0-480-214.903-480-480s214.903-480 480-480c265.097 0 480 214.903 480 480 0 265.097-214.903 480-480 480z"  horiz-adv-x="1024" />

    
    <glyph glyph-name="myicon-right" unicode="&#58904;" d="M485.669 26.77l847.067 847.141c6.659 6.888 15.983 11.165 26.305 11.165 20.198 0 36.571-16.374 36.571-36.571 0-10.322-4.277-19.646-11.155-26.296l-867.85-867.923c-6.776-9.774-17.936-16.094-30.572-16.094-10.151 0-19.349 4.078-26.045 10.686l-433.879 433.879c-6.629 6.708-10.724 15.933-10.724 26.114 0 10.071 4.007 19.207 10.513 25.899 6.66 6.463 15.768 10.454 25.808 10.454 10.187 0 19.415-4.108 26.117-10.757l407.769-407.696z"  horiz-adv-x="1462" />

    
    <glyph glyph-name="myicon-arrow-left" unicode="&#58905;" d="M730.261 896l-510.832-490.399 510.832-490.399 72.976 70.057-420.342 420.342 420.342 420.342z"  horiz-adv-x="1024" />

    
    <glyph glyph-name="myicon-close" unicode="&#58906;" d="M512 458.854l-434.432 434.432-72.448-72.397 434.432-434.432-434.432-434.483 72.397-72.397 434.483 434.432 434.432-434.432 72.448 72.397-434.483 434.483 434.483 434.432-72.448 72.397-434.432-434.432z"  horiz-adv-x="1024" />

    
    <glyph glyph-name="myicon-light" unicode="&#58907;" d="M379.825 115.798h246.87c3.121 38.764 27.452 91.083 69.726 150.667 11.41 12.287 21.698 25.745 31.060 40.665l3.072 3.706 0.878 3.023c22.112 37.553 35.183 82.725 35.205 130.948-0 144.738-118.291 262.688-263.692 262.688v24.38c158.81 0 288.072-128.872 288.072-287.291-0.055-51.895-13.926-100.539-38.133-142.466-0.005-2.165-1.906-5.35-4.53-7.759l-1.123-1.417c-23.284-37.303-54.293-67.7-90.965-89.597 16.168-12.798-6.749-65.361-5.53-99.98 0.488-3.657 0.731-5.754 0.731-8.63v-104.248c0-44.225-36.082-80.21-80.405-80.21h-134.967c-44.322 0-80.356 35.936-80.356 80.21v104.248c0 1.95 0.146 3.364 0.439 5.705-0.282 1.255-0.444 2.696-0.444 4.175 0 0.161 0.002 0.321 0.006 0.481 1.365 35.473-23.064 86.817-61.584 141.964-27.78 28.508-48.484 64.045-59.187 103.688l21.886-54.977c-1.95 2.243-3.316 4.876-2.877 4.778-24.559 41.318-39.083 91.092-39.105 144.256 0 158.249 129.213 287.071 288.072 287.071v-24.38c-145.401 0-263.692-117.998-263.692-262.912 0-46.078 12.385-91.57 37.057-134.771-0.195 0.683-0.488 1.317-2.292 3.169l2.926-3.316c10.191-16.92 22.137-32.571 35.985-47.102 39.349-56.122 64.655-107.271 66.849-146.766zM627.037 91.418h-246.87v-73.139h246.967v73.139zM627.037-6.101h-246.87v-3.413c0-30.767 25.111-55.83 55.976-55.83h134.967c30.914 0 56.025 25.062 56.025 55.83v3.413zM698.908 776.637c1.076-0.63 2.369-1.003 3.749-1.003 2.756 0 5.165 1.485 6.472 3.698l26.398 45.528c0.632 1.077 1.005 2.372 1.005 3.754 0 4.15-3.364 7.515-7.515 7.515-2.768 0-5.186-1.497-6.49-3.725l-26.349-45.528c-0.63-1.076-1.003-2.369-1.003-3.749 0-2.756 1.485-5.165 3.698-6.472zM889.266 671.511l-45.59-26.233c-2.492-1.256-4.172-3.795-4.172-6.727 0-4.147 3.362-7.509 7.509-7.509 1.555 0 3 0.473 4.199 1.283l45.612 26.216c2.024 1.366 3.337 3.651 3.337 6.243 0 4.147-3.362 7.509-7.509 7.509-1.216 0-2.364-0.289-3.38-0.802zM941.195 437.026h-52.66c-0.181 0.016-0.392 0.024-0.605 0.024-4.147 0-7.509-3.362-7.509-7.509 0-4.147 3.362-7.509 7.509-7.509 0.213 0 0.424 0.009 0.632 0.026l52.633-0.002c0.181-0.016 0.392-0.024 0.605-0.024 4.147 0 7.509 3.362 7.509 7.509 0 4.147-3.362 7.509-7.509 7.509-0.213 0-0.424-0.009-0.632-0.026zM109.405 437.026h-52.66c-0.181 0.016-0.392 0.024-0.605 0.024-4.147 0-7.509-3.362-7.509-7.509 0-4.147 3.362-7.509 7.509-7.509 0.213 0 0.424 0.009 0.632 0.026l52.633-0.002c0.181-0.016 0.392-0.024 0.605-0.024 4.147 0 7.509 3.362 7.509 7.509 0 4.147-3.362 7.509-7.509 7.509-0.213 0-0.424-0.009-0.632-0.026zM166.161 645.229l-45.59 26.281c-0.973 0.493-2.121 0.782-3.337 0.782-4.147 0-7.509-3.362-7.509-7.509 0-2.592 1.313-4.877 3.31-6.226l45.617-26.298c1.079-0.642 2.378-1.021 3.767-1.021 2.755 0 5.162 1.494 6.454 3.716 0.65 1.111 1.022 2.404 1.022 3.784 0 2.756-1.485 5.165-3.698 6.472zM300.64 779.318c1.328-2.257 3.744-3.748 6.509-3.748 4.157 0 7.527 3.37 7.527 7.527 0 1.392-0.378 2.696-1.037 3.814l-26.311 45.409c-1.306 2.278-3.724 3.788-6.494 3.788-1.38 0-2.672-0.375-3.781-1.028-2.243-1.287-3.753-3.705-3.753-6.475 0-1.38 0.375-2.672 1.028-3.781l26.311-45.458zM504.943 828.419c0-0 0-0 0-0 4.147 0 7.509 3.362 7.509 7.509 0 0.017-0 0.034-0 0.051l0 52.463c-0 4.161-3.373 7.533-7.533 7.533-4.161 0-7.533-3.373-7.533-7.533v-52.465c0-4.145 3.413-7.509 7.509-7.509z"  horiz-adv-x="1024" />

    
    <glyph glyph-name="myicon-wrong" unicode="&#58908;" d="M546.338-127.317c-1.756-0.022-3.83-0.034-5.907-0.034-282.28 0-511.113 228.833-511.113 511.113 0 282.28 228.833 511.113 511.113 511.113 2.077 0 4.151-0.012 6.222-0.037 279.413-3.333 504.891-230.873 504.891-511.075 0-280.203-225.478-507.742-504.891-511.075zM783.701 622.933c-11.083 11.091-26.398 17.951-43.315 17.951s-32.232-6.86-43.315-17.95l-151.894-151.757-149.845 149.845c-10.94 10.482-25.813 16.935-42.194 16.935-33.706 0-61.030-27.324-61.030-61.030 0-16.38 6.453-31.253 16.956-42.216l149.825-149.823-151.689-151.757c-11.085-11.085-17.942-26.4-17.942-43.315 0-33.831 27.426-61.257 61.257-61.257 16.916 0 32.23 6.856 43.315 17.942l151.62 151.757 151.825-151.825c11.042-11.042 26.296-17.871 43.145-17.871 33.698 0 61.016 27.318 61.016 61.016 0 16.849-6.829 32.103-17.871 43.145l-151.757 151.825 151.825 151.825c11.070 11.080 17.917 26.381 17.917 43.281 0 16.9-6.846 32.202-17.917 43.281z"  horiz-adv-x="1092" />

    
    <glyph glyph-name="myicon-arrow-right" unicode="&#58909;" d="M256.409 896l532.073-510.774-532.073-510.774-25.334 22.27 488.453 488.504-488.453 488.402z"  horiz-adv-x="1024" />

    
    <glyph glyph-name="myicon-correct" unicode="&#58910;" d="M512.644 895.552c66.304 0 128.448-12.544 186.368-37.696 88.523-38.621 161.016-100.079 212.016-177.023 5.294 7.653 52.057-76.829 71.736-171.249-3.816 33.584 8.792-28.816 8.792-95.12 0.005-0.806 0.008-1.759 0.008-2.712 0-66.772-13.893-130.299-38.947-187.848-54.625-127.884-162.838-227.284-296.391-270.042-11.219-7.752-74.2-21.649-140.427-21.649-1.132 0-2.263 0.004-3.393 0.012-0.716-0.007-1.769-0.011-2.822-0.011-66.5 0-129.755 13.896-187.018 38.941-127.46 55.317-226.179 164.17-267.828 298.159-8.336 12.138-22.229 75.665-22.229 142.436 0 0.954 0.003 1.907 0.008 2.859-0.001 66.157 12.607 128.493 37.759 186.797 38.784 89.627 100.459 163.174 177.76 215.325-10.231 2.928 73.015 49.566 166.213 69.191-34.419-4.194 28.836 9.702 95.337 9.702 1.075 0 2.15-0.004 3.224-0.011zM813.316 506.304c13.12 13.12 20.032 29.312 20.736 48.64 0.084 1.212 0.131 2.626 0.131 4.052 0 17.453-7.151 33.237-18.683 44.58-11.578 11.889-27.729 19.259-45.601 19.259-0.892 0-1.779-0.018-2.662-0.055-18.722 0.002-35.763-7.737-47.993-20.211l-308.361-308.425-106.048 104.96c-12.239 12.515-29.293 20.278-48.16 20.288-0.724 0.032-1.612 0.051-2.503 0.051-17.872 0-34.023-7.37-45.579-19.237-13.134-13.070-19.854-28.558-20.238-46.414-0.017-0.537-0.026-1.169-0.026-1.804 0-17.596 7.374-33.469 19.2-44.699l151.963-153.113c13.12-13.12 30.272-19.456 51.392-19.136 21.12 0.384 38.272 7.104 51.392 20.224l351.040 351.040z"  horiz-adv-x="1024" />

    
    <glyph glyph-name="CombinedShape" unicode="&#58911;" d="M512-59.733333a443.733333 443.733333 0 1 1 0 887.466666 443.733333 443.733333 0 0 1 0-887.466666z m0-68.266667a512 512 0 1 0 0 1024 512 512 0 0 0 0-1024z m138.990933 534.664533H273.066667v-68.266666h377.924266l-174.830933-174.762667v-96.597333l305.493333 305.493333-305.493333 305.493333v-96.529066l174.762667-174.762667z"  horiz-adv-x="1024" />

    
    <glyph glyph-name="more" unicode="&#58912;" d="M783.058824 356.773647a120.470588 120.470588 0 1 1 240.941176 0 120.470588 120.470588 0 0 1-240.941176 0z m-361.411765 0a120.470588 120.470588 0 1 1 240.941176 0 120.470588 120.470588 0 0 1-240.941176 0z m-361.411765 0a120.470588 120.470588 0 1 1 240.941177 0 120.470588 120.470588 0 0 1-240.941177 0z"  horiz-adv-x="1084" />

    
    <glyph glyph-name="help" unicode="&#58913;" d="M518.023529 865.882353a481.882353 481.882353 0 1 1 0-963.764706 481.882353 481.882353 0 0 1 0 963.764706z m0-60.235294a421.647059 421.647059 0 1 0 0-843.294118 421.647059 421.647059 0 0 0 0 843.294118z m176.188236-368.158118c-13.010824-20.540235-40.779294-48.549647-83.365647-83.968-22.046118-18.311529-35.659294-33.069176-40.96-44.212706-5.421176-11.143529-7.830588-31.141647-7.288471-59.813647H467.727059a1981.018353 1981.018353 0 0 0-0.421647 24.877177c0 30.72 5.12 56.018824 15.239529 75.776 10.24 19.817412 30.539294 42.164706 61.018353 66.861176 30.479059 24.816941 48.730353 41.020235 54.633412 48.730353 9.155765 12.107294 13.793882 25.479529 13.793882 40.116706 0 20.239059-8.192 37.647059-24.395294 52.103529-16.263529 14.456471-38.189176 21.684706-65.776941 21.684706-26.503529 0-48.790588-7.589647-66.680471-22.588235-17.829647-15.058824-33.129412-48.308706-36.803764-68.909176-3.493647-19.395765-96.978824-27.587765-95.894589 11.745882 1.084235 39.333647 21.624471 82.040471 56.681412 113.001412 35.117176 30.960941 81.197176 46.441412 138.179765 46.441411 60.054588 0 107.821176-15.661176 143.239529-46.983529 35.478588-31.322353 53.127529-67.885176 53.12753-109.447529a120.470588 120.470588 0 0 0-19.456-65.41553z m-179.019294-318.042353a46.983529 46.983529 0 0 0-47.525647 46.622118 46.983529 46.983529 0 0 0 47.525647 46.561882 46.983529 46.983529 0 0 0 47.465411-46.561882 46.983529 46.983529 0 0 0-47.465411-46.561882z"  horiz-adv-x="1024" />

    
    <glyph glyph-name="iconup" unicode="&#58914;" d="M0.805 295.494v-360.079c0-28.013 23.991-56.027 56.027-56.027 0.397-0.010 0.864-0.016 1.333-0.016 30.216 0 54.71 24.495 54.71 54.71 0 0.469-0.006 0.936-0.018 1.402l0.001 360.010c-16.091-8.046-36.059-11.995-52.004-11.995-24.064 0-44.032 4.023-60.050 11.995zM312.829 455.529v-520.041c0-28.087 24.064-56.1 56.027-56.1 0.397-0.010 0.864-0.016 1.333-0.016 30.216 0 54.71 24.495 54.71 54.71 0 0.469-0.006 0.936-0.018 1.402l0.001 552.082-40.009 23.991-72.045-56.027zM624.927 371.488v-440.024c0-28.013 23.991-56.027 56.027-56.027 0.397-0.010 0.864-0.016 1.333-0.016 30.216 0 54.71 24.495 54.71 54.71 0 0.469-0.006 0.936-0.018 1.402l0.001 439.955c-16.091-8.046-36.059-11.995-56.027-11.995-20.041 4.023-40.009 4.023-56.027 11.995zM936.952-68.535c0-28.013 24.064-56.027 56.027-56.027 0.397-0.010 0.864-0.016 1.333-0.016 30.216 0 54.71 24.495 54.71 54.71 0 0.469-0.006 0.936-0.018 1.402l0.001 660.040-108.031-76.068v-584.041h-4.023zM1161.060 835.576c-0.525 28.537-23.543 51.526-52.042 52.004l-240.015 8.046c-32.036 3.95-56.027-23.991-56.027-52.004 0-28.013 23.991-56.027 51.931-56.027l112.054-4.023-300.029-215.989-280.062 163.985c-8.282 4.984-18.261 7.968-28.929 8.061-12.969-0.373-25.693-5.064-36.026-12.778l-311.068-259.326c-24.064-19.968-28.013-52.004-8.046-76.068 11.995-11.922 28.013-19.968 40.009-19.968 13.856 0.333 26.563 4.985 36.897 12.653l283.173 235.445 280.062-160.035c8.282-4.984 18.261-7.968 28.929-8.061-0.561 0.005-0.143-0 0.276-0 11.886 0 22.706 4.566 30.802 12.039l348.126 248.070 3.95-116.077c0-27.94 23.991-51.931 51.931-51.931 28.087 0 52.077 23.991 52.077 55.954l-8.046 236.030z"  horiz-adv-x="1170" />

    
    <glyph glyph-name="money" unicode="&#58915;" d="M960.789 495.36c-17.792 24.896-126.464 170.88-126.464 170.88-78.11 88.636-191.886 144.26-318.653 144.26-0.653 0-1.307-0.001-1.959-0.004-165.531 0-307.995-94.336-381.019-231.488h-1.792c-7.104-10.688-19.584-19.584-33.856-19.584-0.194-0.003-0.423-0.005-0.652-0.005-22.268 0-40.32 18.052-40.32 40.32 0 6.033 1.325 11.756 3.7 16.895 87.256 167.174 258.136 279.366 454.040 279.366 149.568 0 283.136-64.128 377.536-167.424l28.48 30.272c17.792 33.92 23.168 53.44 39.168 53.44s12.48-14.208 19.584-53.44l12.48-231.488c7.104-74.816-21.376-42.752-30.272-32zM679.509 342.080c0.192 0.003 0.418 0.005 0.645 0.005 22.268 0 40.32-18.052 40.32-40.32 0-0.227-0.002-0.453-0.006-0.679 0.004-0.158 0.006-0.384 0.006-0.611 0-22.268-18.052-40.32-40.32-40.32-0.227 0-0.453 0.002-0.679 0.006l-124.766-0v-96.192c0.003-0.192 0.005-0.418 0.005-0.645 0-22.268-18.052-40.32-40.32-40.32-0.227 0-0.453 0.002-0.679 0.006-0.158-0.004-0.384-0.006-0.611-0.006-22.268 0-40.32 18.052-40.32 40.32 0 0.227 0.002 0.453 0.006 0.679l-0 94.43h-124.608c-0.192-0.003-0.418-0.005-0.645-0.005-22.268 0-40.32 18.052-40.32 40.32 0 0.227 0.002 0.453 0.006 0.679-0.004 0.158-0.006 0.384-0.006 0.611 0 22.268 18.052 40.32 40.32 40.32 0.227 0 0.453-0.002 0.679-0.006l124.574 0v55.232h-124.608c-0.192-0.003-0.418-0.005-0.645-0.005-22.268 0-40.32 18.052-40.32 40.32 0 0.227 0.002 0.453 0.006 0.679-0.004 0.158-0.006 0.384-0.006 0.611 0 22.268 18.052 40.32 40.32 40.32 0.227 0 0.453-0.002 0.679-0.006l97.886 0-97.92 97.92c-16 16-17.792 33.856 0 58.816 14.272 17.792 42.752-10.688 58.752-28.544l108.736-85.376 108.608 85.44c16 16 42.752 44.544 58.752 28.544 24.96-26.752 16-42.752 0-58.816l-97.92-97.92h94.4c0.192 0.003 0.418 0.005 0.645 0.005 22.268 0 40.32-18.052 40.32-40.32 0-0.227-0.002-0.453-0.006-0.679 0.004-0.158 0.006-0.384 0.006-0.611 0-22.268-18.052-40.32-40.32-40.32-0.227 0-0.453 0.002-0.679 0.006l-124.766-0v-55.232h124.672v1.792zM125.589 192.64c3.52-7.168 10.688-10.688 12.416-17.856 28.544-39.168 53.44-76.544 53.44-76.544 78.11-88.637 191.886-144.26 318.654-144.26 0.676 0 1.351 0.002 2.026 0.005-0.069-0-0.026-0 0.016-0 163.43 0 305.534 91.307 378.084 225.69 8.083 15.073 21.413 23.621 36.742 23.654 0.158 0.003 0.384 0.005 0.611 0.005 22.268 0 40.32-18.052 40.32-40.32 0-0.227-0.002-0.453-0.006-0.679 0-8.926-3.52-15.966-8.896-23.134h1.792c-87.232-158.592-256.448-267.2-450.56-267.2-149.568 0-283.136 64.128-377.6 167.424l-28.416-30.272c-17.856-33.92-23.168-53.44-39.168-53.44s-12.48 14.208-19.648 53.44l-12.416 231.488c-7.168 74.816 21.376 42.752 30.272 32 10.688-12.416 35.584-46.272 62.336-80.064z"  horiz-adv-x="1024" />

    
    <glyph glyph-name="moneys" unicode="&#58917;" d="M600.768-128h-158.080c-5.76 0.448-358.080 33.152-358.080 340.48 0 252.544 226.56 389.312 307.456 430.144l-90.432 139.712c-2.596 3.957-4.141 8.806-4.141 14.016 0 14.245 11.547 25.792 25.792 25.792 0.016 0 0.031-0 0.047-0l117.63 0 60.096 65.536c4.76 5.124 11.535 8.32 19.057 8.32 0.005 0 0.011-0 0.016-0l3.199 0c7.168 0 14.144-3.008 19.008-8.32l60.032-65.536h117.696c0.029 0 0.064 0 0.099 0 14.209 0 25.728-11.519 25.728-25.728 0-5.238-1.566-10.111-4.254-14.176l-90.244-139.68c80.96-40.832 307.456-177.6 307.456-430.208 0-307.264-352.448-339.968-356.032-340.288l-2.048-0.064zM370.688 770.496l80.768-124.8c2.62-3.951 4.18-8.803 4.18-14.020 0-10.686-6.548-19.843-15.85-23.678-3.114-1.342-303.53-129.534-303.53-395.582 0-259.776 296-287.744 308.544-288.96l154.816 0.064c22.592 2.176 307.648 34.048 307.648 288.832 0 266.112-300.544 394.24-303.552 395.584-9.38 4.040-15.827 13.204-15.827 23.874 0 5.206 1.535 10.053 4.176 14.114l80.579 124.636h-81.6c-7.509 0.006-14.269 3.204-18.999 8.31l-50.313 54.922-50.368-54.976c-4.739-5.123-11.496-8.32-19.001-8.32-0.003 0-0.005 0-0.008 0l-81.664-0zM613.632 606.016h-183.872c-14.245-0-25.792 11.547-25.792 25.792s11.547 25.792 25.792 25.792h183.872c14.272 0 25.92-11.584 25.92-25.792-0.036-14.252-11.599-25.792-25.856-25.792-0.023 0-0.045 0-0.068 0zM516.224-1.664c-8.192 0-14.144 2.432-17.856 7.488-3.2 4.16-4.736 10.88-4.736 20.736v99.584h-117.184c-13.632 0-21.76 7.872-21.76 21.12 0 13.632 7.616 21.888 20.352 21.888h118.592v57.152h-117.184c-13.632 0-21.76 7.936-21.76 21.12 0 13.76 7.616 21.888 20.352 21.888h96.32l-111.36 181.568c-3.703 3.232-6.030 7.961-6.030 13.233 0 1.205 0.122 2.382 0.353 3.519 1.72 11.039 11.255 19.472 22.76 19.472 0.047 0 0.093-0 0.14-0 6.201-0.32 12.857-2.688 17.977-12.16l122.368-204.16 119.68 202.24c3.712 6.208 9.536 14.464 17.92 14.464 4.8 0 9.6-1.664 14.72-4.736 7.68-4.928 9.344-10.88 9.344-15.040-0.533-7.106-3.062-13.534-7.022-18.83l-107.794-179.57h93.632c13.696 0 21.888-8.128 21.888-21.888 0-13.184-8.192-21.12-21.888-21.12h-118.656v-57.152h118.592c13.696 0 21.888-8.256 21.888-21.888 0-13.248-8.192-21.12-21.888-21.12h-118.592v-99.584c0-9.92-1.472-16.64-4.736-20.736-3.584-5.12-9.856-7.488-18.432-7.488z"  horiz-adv-x="1024" />

    
    <glyph glyph-name="zuanqu" unicode="&#58918;" d="M884.765 201.343c-16.050 9.416-36.575 4.23-46.019-11.654-68.291-114.611-193.521-185.796-326.719-185.796-177.798 0-327.484 122.663-368.808 287.824l48.748-48.722c13.101-13.101 34.337-13.101 47.438 0 13.047 13.101 13.047 34.337-0.054 47.438l-117.313 117.285c-9.554 9.58-23.965 12.446-36.521 7.26s-20.689-17.414-20.689-30.98c0-246.581 200.617-447.198 447.198-447.198 156.727 0 304.010 83.74 384.366 218.55 9.444 15.912 4.258 36.493-11.628 45.991zM512.027 831.199c-172.394 0-326.501-96.296-402.107-251.304-8.134-16.65-1.201-36.739 15.449-44.845 16.431-8.107 36.739-1.283 44.818 15.421 64.307 131.779 195.267 213.637 341.841 213.637 177.744 0 327.428-122.663 368.754-287.797l-59.557 59.53c-13.101 13.101-34.283 13.101-47.384 0-13.101-13.101-13.101-34.337 0-47.438l128.122-128.122c6.387-6.414 14.958-9.826 23.692-9.826 4.312 0 8.68 0.846 12.828 2.565 12.556 5.186 20.689 17.414 20.689 30.98 0.001 246.582-200.561 447.199-447.143 447.199zM304.095 258.798l10.536-43.071c46.129 7.042 92.693 15.585 139.75 25.657v-71.922h42.635v81.093c17.687 4.286 31.116 7.643 40.288 10.071v43.536l-40.288-10.536-0 244.698h32.972v-26.121h14.684c6.059-75.47 25.494-144.799 58.192-208.041-23.528-39.086-53.334-72.686-89.363-100.8l29.752-33.9c32.371 25.957 60.322 56.801 83.85 92.557 20.198-32.071 44.327-62.614 72.441-91.657l29.315 33.463c-31.498 29.614-57.755 62.314-78.827 98.043 29.642 58.056 49.513 128.777 59.557 212.163v39.851l-178.673 0v25.22h-222.726v-40.779h31.662v-274.941l-35.756-4.585zM668.808 512.204c-7.315-59.885-21.673-114.42-43.071-163.578-22 49.485-35.702 103.993-41.215 163.578h84.286zM381.994 538.325h72.386v-61.414l-72.386-0v61.414zM381.994 437.498h72.386v-60.923l-72.386 0v60.923zM381.994 337.626h72.386v-54.072c-23.2-4.885-47.329-9.472-72.386-13.756v67.828z"  horiz-adv-x="1024" />

    
    <glyph glyph-name="DeleteIcon" unicode="&#58919;" d="M90.352941 384c0-49.814588 376.470588-381.409882 376.470588-381.409882 24.816941-22.166588 72.222118-40.237176 105.532236-40.237177h572.054588A120.591059 120.591059 0 0 1 1264.941176 82.703059V685.296941A120.530824 120.530824 0 0 1 1144.410353 805.647059H572.355765c-33.551059 0-80.353882-17.829647-105.050353-39.875765 0 0-376.952471-331.956706-376.952471-381.771294z m707.764706 63.849412l-149.022118 149.022117a45.116235 45.116235 0 1 1-63.849411-63.849411L734.208 384l-148.961882-149.022118a45.116235 45.116235 0 1 1 63.849411-63.849411l149.022118 148.961882 149.022118-148.961882a45.116235 45.116235 0 1 1 63.849411 63.849411L862.027294 384l148.961882 149.022118a45.116235 45.116235 0 1 1-63.849411 63.849411L798.117647 447.909647zM0 384c0 61.018353 46.019765 111.736471 193.415529 252.988235l23.250824 22.166589a7607.055059 7607.055059 0 0 0 190.524235 174.08C448.512 870.098824 516.758588 896 572.355765 896h572.054588A210.883765 210.883765 0 0 0 1355.294118 685.296941v-602.593882A210.944 210.944 0 0 0 1144.410353-128H572.355765c-55.536941 0-124.325647 26.202353-165.225412 62.765176l-16.504471 14.637177a8337.227294 8337.227294 0 0 0-197.391058 181.790118C46.019765 272.263529 0 322.981647 0 384z"  horiz-adv-x="1385" />

    
    <glyph glyph-name="iconmy" unicode="&#58921;" d="M669.0816 455.5776l-92.3136-48.5376 17.6128 102.8096L519.68 582.656l103.2192 15.0016L669.0816 691.2l46.1312-93.5424 103.2192-15.0016-74.7008-72.8064 17.664-102.8096-92.3136 48.5376zM204.8 691.2h254.464v-102.4H204.8V691.2zM102.4 691.2v-614.4c0-84.7872 68.7104-153.6 153.344-153.6h512.512A153.6 153.6 0 0 1 921.6 76.8V691.2c0 84.7872-68.7104 153.6-153.344 153.6H255.744A153.6 153.6 0 0 1 102.4 691.2zM51.2 691.2a204.8 204.8 0 0 0 204.544 204.8h512.512A204.6976 204.6976 0 0 0 972.8 691.2v-614.4a204.8 204.8 0 0 0-204.544-204.8H255.744A204.6976 204.6976 0 0 0 51.2 76.8V691.2z m153.6-204.8h254.464v-102.4H204.8V486.4z m0-204.8h614.4v-102.4H204.8v102.4z"  horiz-adv-x="1024" />

    
    <glyph glyph-name="iconmy1" unicode="&#58922;" d="M204.8 691.2h342.6304v-102.4H204.8V691.2zM102.4 691.2v-614.4c0-84.7872 68.7104-153.6 153.344-153.6h512.512A153.6 153.6 0 0 1 921.6 76.8V691.2c0 84.7872-68.7104 153.6-153.344 153.6H255.744A153.6 153.6 0 0 1 102.4 691.2zM51.2 691.2a204.8 204.8 0 0 0 204.544 204.8h512.512A204.6976 204.6976 0 0 0 972.8 691.2v-614.4a204.8 204.8 0 0 0-204.544-204.8H255.744A204.6976 204.6976 0 0 0 51.2 76.8V691.2z m153.6-204.8h342.6304v-102.4H204.8V486.4z m0-204.8h614.4v-102.4H204.8v102.4z m617.3696 457.728a18.944 18.944 0 0 1-26.2656-5.5296l-74.24-113.6128-72.2944 113.408a18.944 18.944 0 0 1-32-20.3776l68.608-107.6224H633.344a18.944 18.944 0 0 1 0-37.9392h70.1952v-54.4256h-70.1952a18.944 18.944 0 0 1 0-37.9392h70.1952V401.92a18.944 18.944 0 0 1 37.9904 0V475.2896h70.1952a18.944 18.944 0 0 1 0 37.9392h-70.1952V567.6544h70.1952a18.944 18.944 0 0 1 0 37.9392h-54.272l70.144 107.4176a18.944 18.944 0 0 1-5.4784 26.3168z"  horiz-adv-x="1024" />

    
    <glyph glyph-name="iconmy2" unicode="&#58923;" d="M102.4 691.2v-614.4c0-84.7872 68.7104-153.6 153.344-153.6h512.512A153.6 153.6 0 0 1 921.6 76.8V691.2c0 84.7872-68.7104 153.6-153.344 153.6H255.744A153.6 153.6 0 0 1 102.4 691.2zM51.2 691.2a204.8 204.8 0 0 0 204.544 204.8h512.512A204.6976 204.6976 0 0 0 972.8 691.2v-614.4a204.8 204.8 0 0 0-204.544-204.8H255.744A204.6976 204.6976 0 0 0 51.2 76.8V691.2z m307.2 0h460.8v-102.4H358.4V691.2z m0-204.8h460.8v-102.4H358.4V486.4z m0-204.8h460.8v-102.4H358.4v102.4zM204.8 691.2h102.4v-102.4H204.8V691.2z m0-204.8h102.4v-102.4H204.8V486.4z m0-204.8h102.4v-102.4H204.8v102.4z"  horiz-adv-x="1024" />

    
    <glyph glyph-name="iconmy3" unicode="&#58924;" d="M78.769231 738.225231v-708.450462A78.375385 78.375385 0 0 1 156.750769-49.230769h1261.883077c42.614154 0 77.981538 35.446154 77.981539 79.005538V738.225231A78.375385 78.375385 0 0 1 1418.633846 817.230769H156.750769C114.215385 817.230769 78.769231 781.784615 78.769231 738.225231z m-78.769231 0C0 825.344 70.734769 896 156.750769 896h1261.883077C1505.122462 896 1575.384615 825.580308 1575.384615 738.225231v-708.450462A157.617231 157.617231 0 0 0 1418.633846-128H156.750769C70.262154-128 0-57.580308 0 29.774769V738.225231z m75.776-575.094154c0 12.681846 10.24 23.000615 23.158154 23.000615h261.671384c12.839385 0 23.158154-10.712615 23.158154-23.000615 0-12.760615-10.24-23.079385-23.158154-23.079385H98.934154a23.315692 23.315692 0 0 0-23.158154 23.079385z m513.339077 0c0 12.681846 10.712615 23.000615 23.394461 23.000615h569.344c12.918154 0 23.394462-10.712615 23.394462-23.000615a23.315692 23.315692 0 0 0-23.394462-23.079385H612.509538a23.473231 23.473231 0 0 0-23.394461 23.079385z m-513.339077-76.8a22.843077 22.843077 0 0 0 22.685538 23.079385H207.163077c12.524308 0 22.685538-10.712615 22.685538-23.079385a22.843077 22.843077 0 0 0-22.685538-23.000615H98.461538a23.079385 23.079385 0 0 0-22.685538 23.000615z m519.010462 0c0 12.760615 10.712615 23.079385 23.000615 23.079385h203.382154c12.681846 0 23.000615-10.712615 23.000615-23.079385a23.315692 23.315692 0 0 0-23.000615-23.000615H617.787077a23.236923 23.236923 0 0 0-23.000615 23.000615z m306.963692 0a22.843077 22.843077 0 0 0 23.158154 23.079385h433.309538c12.839385 0 23.158154-10.712615 23.158154-23.079385a22.843077 22.843077 0 0 0-23.158154-23.000615h-433.309538a23.315692 23.315692 0 0 0-23.158154 23.000615zM0 659.692308h1575.384615v-191.881846H0V659.692308z"  horiz-adv-x="1575" />

    
    <glyph glyph-name="iconmy4" unicode="&#58925;" d="M351.938597 252.286045c66.826369-54.597041 142.556098-73.785317 226.6775-50.247698 61.504821 17.243864 108.989407 55.211066 146.444922 105.919283 51.578086 70.049999 73.836486 149.617384 74.604017 235.785535a406.126257 406.126257 0 0 1-15.759971 114.822643c-20.774507 71.738568-56.694959 134.3691-116.511211 180.472132C585.319201 902.333666 495.978588 913.846632 401.879283 868.357625c-59.406902-28.705661-101.62111-76.241416-131.503651-134.215594-50.145361-97.374104-58.537034-199.55807-29.933711-304.607485 19.085938-70.101168 54.750547-130.838458 111.496676-177.248501zM317.757881 707.636626A263.365484 263.365484 0 0 0 390.468655 798.512301c75.320379 59.713915 171.517603 58.946384 245.763438-2.097918 46.819393-38.530058 75.729729-88.624251 93.1271-145.933235 10.54076-34.692403 15.452958-70.305843 15.350621-106.584477-0.665194-75.064536-19.392951-144.654016-64.165595-205.851824-29.729036-40.679145-67.389225-71.533893-116.562381-85.502958-68.207925-19.44412-128.535865-2.046749-181.342 43.237582-45.540175 39.092914-73.68298 89.494119-89.238275 146.751934-24.816837 91.233856-17.80672 179.909275 24.305149 265.054052z m294.987763-784.109709H101.723478c-19.392951 0.8187-32.747991 15.248283-32.440978 35.818115 0.102337 10.080241 0.716362 20.160482 2.200255 30.087217 13.457378 88.726588 59.611577 158.878925 137.132213 194.441196 25.993718 11.871147 53.573666 16.373995 81.869977 17.039189 22.104894 0.511687 34.692403 12.587509 27.835792 33.157341-4.45168 13.35504-16.118152 21.490869-31.417604 21.490869-50.759386 0-98.397479-12.382834-141.942073-38.325383-79.004528-46.9729-126.386778-116.050693-141.021036-207.079874-1.944412-11.922315-2.609606-24.049306-3.888824-36.073959v-8.954529c0.40935-2.046749 1.023375-4.093499 1.176881-6.191417 1.842074-19.955807 9.31271-37.557852 22.360738-52.60146 20.467494-23.537619 46.512381-33.720197 77.571803-33.669028 273.906243 0.153506 240.85124 0.102337 514.757483 0.102337 2.81428 0 5.014536 50.759386-3.172461 50.759386zM818.750974-76.268408a153.506208 153.506208 0 1 1 0 307.012415 153.506208 153.506208 0 0 1 0-307.012415z m0-51.168736a204.674944 204.674944 0 1 0 0 409.349887 204.674944 204.674944 0 0 0 0-409.349887z m-30.701241 225.142438H716.413503v-40.934989h71.63623V-25.099672h51.168736v81.869977H921.088446v40.934989h-81.869977V179.575272h-51.168736v-81.869978z"  horiz-adv-x="1024" />

    
    <glyph glyph-name="iconmy5" unicode="&#58926;" d="M768 384c0 127.0784-103.3216 230.4-230.4 230.4A230.6048 230.6048 0 0 1 307.2 384c0-127.0784 103.3216-230.4 230.4-230.4S768 256.9216 768 384h-51.2c0-98.816-80.384-179.2-179.2-179.2S358.4 285.184 358.4 384s80.384 179.2 179.2 179.2S716.8 482.816 716.8 384h51.2z m288.9728 130.3552c-15.616 39.8848-48.8448 66.4064-89.9584 66.4064h-4.9664a67.9936 67.9936 0 0 0-67.84 67.84c0 6.2976 2.7648 17.2032 6.144 25.088 21.5552 48.4352 5.12 107.264-38.7072 137.8304L735.232 882.2784l-5.2224 2.56a120.2176 120.2176 0 0 1-132.7616-25.9584c-18.0736-18.6368-47.9744-36.9664-57.1392-36.9664-9.216 0-39.424 18.7392-57.6512 37.8368A120.1152 120.1152 0 0 1 350.72 886.8864L219.6992 815.5136l-5.376-3.4304a113.7664 113.7664 0 0 1-39.424-138.752c3.2256-7.5264 5.9904-18.2784 5.9904-24.6784 0-37.376-30.5152-67.84-67.8912-67.84h-4.096c-49.7664 0-87.7568-37.6832-97.8432-91.136C4.3008 453.632 0 416.0512 0 384.8192c0-31.1808 4.3008-68.8128 11.0592-104.704 10.0864-53.3504 47.9232-91.1872 97.024-91.1872h4.9664c37.376 0 67.84-30.464 67.84-67.84 0-6.2976-2.816-17.408-6.144-24.9856a113.664 113.664 0 0 1 38.6048-137.9328l124.1088-69.888 5.2224-2.56a119.0912 119.0912 0 0 1 133.9392 27.648c18.0224 19.5584 49.4592 39.424 58.368 39.424 9.472 0 40.3456-19.968 58.9824-40.3968a118.9888 118.9888 0 0 1 132.9152-28.7744l128.6656 70.656 5.376 3.4304a113.7664 113.7664 0 0 1 39.2704 138.6496 106.9056 106.9056 0 0 0-2.9184 8.6528 75.1104 75.1104 0 0 0-2.9184 13.824c-0.1536 39.6288 30.3616 70.0928 67.7376 70.0928h4.096c49.7152 0 87.7056 37.6832 97.792 91.136 1.792 9.1648 3.7888 21.3504 5.632 34.7136 3.584 26.4192 5.4784 49.92 5.4784 70.0416 0 24.064-2.56 51.8144-6.7584 79.5648-1.28 8.448-2.7136 16.896-4.3008 25.2416l-4.7616 25.1392-50.2784-9.5232 4.7104-25.088 4.7616-25.1904 50.3296 9.5232-4.7616 25.088a137.984 137.984 0 0 1-7.0656 24.7808z m-42.8544-36.2496c5.9904-32.2048 9.728-66.0992 9.728-93.2864 0-17.5616-1.6896-38.8096-5.0176-63.1296-1.6896-12.4928-3.5328-23.808-5.12-32.1024-5.8368-30.9248-24.5248-49.4592-47.5648-49.4592h-4.096a119.1936 119.1936 0 0 1-119.04-119.04c0-2.2528 0.1024-4.608 0.3584-6.9632a146.6368 146.6368 0 0 1 9.984-38.2976 62.464 62.464 0 0 0-20.992-75.6736l-3.072-1.9968-124.8768-68.608a64.0512 64.0512 0 0 0-22.8352-3.8912c-19.2 0-37.7856 7.9872-49.7664 21.1968-27.4944 30.1568-69.12 57.1392-96.768 57.1392-26.8288 0-69.2736-26.8288-96.1024-55.9616a67.9424 67.9424 0 0 0-74.9568-15.7184l-3.0208 1.4336-120.3712 67.7376c-21.6064 15.2576-30.6688 47.7184-18.944 74.0352 5.9392 13.6704 10.4448 31.3856 10.4448 45.568a119.1936 119.1936 0 0 1-119.0912 119.04h-4.2496c-22.9376 0-41.5744 18.6368-47.4112 49.4592A545.9968 545.9968 0 0 0 51.2 384.8192c0 27.648 3.9424 62.2592 10.1376 95.3344 5.888 30.8736 24.5248 49.408 47.5648 49.408h4.096a119.1936 119.1936 0 0 1 119.0912 119.04c0 14.2848-4.4032 31.5904-10.3424 45.2608a62.464 62.464 0 0 0 21.1456 75.6736l3.072 1.9456 127.0784 69.4272A65.024 65.024 0 0 0 395.9296 844.8c18.944 0 37.376-7.68 49.408-20.3776 27.136-28.3648 67.9424-53.76 94.72-53.76 26.5216 0 67.072 24.8832 93.952 52.6336a69.12 69.12 0 0 0 74.8032 14.8992l2.9696-1.3824 122.7264-68.608c21.5552-15.2576 30.6688-47.7184 18.944-73.984a124.0576 124.0576 0 0 1-10.4448-45.6192 119.1936 119.1936 0 0 1 119.0912-119.04h4.9664c22.016 0 40.4992-18.3296 46.4896-48.64l0.512-2.816z"  horiz-adv-x="1075" />

    
    <glyph glyph-name="iconmy6" unicode="&#58927;" d="M585.984 382.464l57.6-57.6512a50.8928 50.8928 0 0 1 72.3456-0.1024l253.5936 253.5936a51.1488 51.1488 0 0 1-0.1024 72.3456L760.32 859.7504a50.8928 50.8928 0 0 1-72.3456 0.1536L434.3808 606.208a51.1488 51.1488 0 0 1 0.1024-72.3456L492.032 476.3136l36.2496 36.1984-26.4192 26.4192a50.8928 50.8928 0 0 0 0.1536 72.448l180.736 180.8384a51.5072 51.5072 0 0 0 72.4992 0.1024l146.688-146.6368a50.8928 50.8928 0 0 0-0.1536-72.4992l-180.736-180.7872a51.5072 51.5072 0 0 0-72.4992-0.1536l-26.4192 26.4192-36.1984-36.1984z m-166.2976 21.4528L362.0864 461.5168a50.8928 50.8928 0 0 1-72.3456 0.1024L36.096 208.0256a51.1488 51.1488 0 0 1 0.1536-72.3456l209.1008-209.1008a50.8928 50.8928 0 0 1 72.3456-0.1024l253.5936 253.5936a51.1488 51.1488 0 0 1-0.1024 72.3456l-57.6512 57.6-36.1984-36.1984 26.4192-26.4192a50.8928 50.8928 0 0 0-0.1536-72.448l-180.7872-180.7872a51.5072 51.5072 0 0 0-72.4992-0.1536l-146.6368 146.688a50.8928 50.8928 0 0 0 0.1024 72.448L284.672 393.9328a51.5072 51.5072 0 0 0 72.448 0.1536l26.4192-26.4192 36.1984 36.2496z m-97.8944-191.744a22.016 22.016 0 0 0-0.0512 31.1808l330.9056 330.9056a22.272 22.272 0 0 0 31.232-0.0512 22.016 22.016 0 0 0 0.0512-31.232l-330.9056-330.9056a22.272 22.272 0 0 0-31.232 0.1024z"  horiz-adv-x="1024" />

    
    <glyph glyph-name="iconmy7" unicode="&#58928;" d="M77.084444 594.488889l4.551112 5.12c4.152889 4.892444 4.835556 10.410667 2.275555 15.36-2.503111 4.949333-8.362667 8.362667-12.743111 8.078222-6.826667-0.455111-11.548444-3.982222-13.937778-11.150222l-1.080889-3.072-0.739555-2.104889-1.820445-5.12L0 620.657778h56.888889a2151.879111 2151.879111 0 0 1 0.227555-23.153778l-56.888888-1.592889 52.963555 20.764445 2.389333-6.257778a629.930667 629.930667 0 0 1 2.901334-7.566222c3.697778-6.712889 6.769778-8.419556 17.294222-8.419556h42.496l8.647111-29.297778-1.877333-2.332444c-2.218667-2.446222-4.437333-4.892444-6.826667-7.850667l14.336-8.817778 10.979556-37.205333 12.913777-44.088889 48.241778-165.546667 42.552889-146.204444h642.616889a893410.304 893410.304 0 0 1 113.038222 387.754667l1.706667 5.575111 4.323555 2.616889c3.185778 1.991111 6.087111 3.982222 9.784889 6.144a104.903111 104.903111 0 0 0-7.964444 8.874666l10.524444 29.866667 39.992889 0.284444c10.808889 0 15.132444 1.934222 19.000889 11.093334a56.718222 56.718222 0 0 1 2.56 7.395555l54.328889-17.066666h-56.888889v24.519111h56.888889l-53.475556-19.456-0.796444 2.104889a247.296 247.296 0 0 0-2.616889 7.452444c-2.844444 9.500444-9.216 13.425778-17.806222 11.946667-6.257778-1.080889-11.150222-7.281778-10.695111-15.075556 0.170667-3.185778 1.649778-6.144 7.168-11.719111l46.307555-46.250667c-11.605333-7.68-25.998222-11.776-43.633777-11.832888a249.002667 249.002667 0 0 1-4.152889-12.515556l-4.494223-15.36-4.949333-3.015111-6.314667-3.982222-3.128888-1.934223a57019.733333 57019.733333 0 0 1-101.091556-61.838222L835.982222 376.604444c-45.624889-27.534222-88.007111-16.042667-113.550222 30.606223a233650.631111 233650.631111 0 0 0-130.616889 237.966222 27277.596444 27277.596444 0 0 0-46.990222 85.674667l-8.817778 16.270222 6.087111 11.150222a100.977778 100.977778 0 0 0-18.659555 11.946667l-3.185778 5.859555 42.552889 29.013334a212.764444 212.764444 0 0 1 5.347555 3.697777l52.110223-26.282666-3.356445-6.087111a138.581333 138.581333 0 0 0-22.129778-18.432l6.030223-10.979556-8.817778-16.099556a513268.906667 513268.906667 0 0 0-180.906667-329.784888c-21.959111-39.651556-66.56-50.232889-104.903111-27.704889-16.952889 10.012444-30.378667 18.204444-60.416 36.750222a23914.552889 23914.552889 0 0 1-89.315556 54.727111l-15.303111 9.329778-52.736 32.312889-4.209777 2.56-8.419556 28.444444c-14.791111 0-27.704889 2.901333-38.798222 8.874667l37.546666 44.999111 2.56 3.072z m941.624889-39.253333l-22.016 36.693333a70.656 70.656 0 0 0 56.32 86.414222 70.826667 70.826667 0 0 0 81.180445-49.777778c0.739556-2.730667 1.934222-5.688889 2.958222-8.362666v-24.462223c-11.548444-36.807111-35.100444-58.140444-75.548444-58.368a249.002667 249.002667 0 0 1-4.152889-12.515555l-118.442667-406.300445c-5.12-17.635556-11.264-22.300444-29.127111-22.300444H228.238222c-19.114667 0-25.031111 4.437333-30.151111 22.300444-32.085333 109.852444-64 219.932444-96.142222 329.784889-8.533333 29.696-17.351111 59.335111-26.168889 89.258667C45.624889 537.6 22.755556 549.546667 8.533333 575.601778c-3.413333 6.371556-5.688889 13.482667-8.362666 20.366222C0 604.501333 0 612.636444 0 620.657778l3.697778 10.24a70.997333 70.997333 0 0 0 130.901333 9.841778c8.248889-16.156444 9.784889-34.190222 5.006222-50.915556l-21.447111-34.872889s46.307556-33.393778 49.152-30.208c36.238222-22.072889 72.305778-44.032 108.259556-66.161778 19.911111-12.231111 39.708444-24.462222 59.562666-36.295111 11.320889-6.599111 20.138667-4.664889 26.282667 6.371556l153.315556 279.608889c0.568889-0.284444 27.306667 49.948444 27.306666 49.948444l-6.826666 3.754667c-22.300444 13.255111-36.408889 32.540444-37.717334 59.960889-1.024 21.048889 6.371556 39.253333 21.276445 53.930666a71.111111 71.111111 0 0 0 104.448-5.859555c29.923556-36.807111 19.171556-79.644444-28.444445-112.071111 15.473778-28.444444 31.175111-56.888889 46.876445-85.333334l130.673778-238.023111c10.012444-18.432 16.440889-20.138667 34.304-9.329778 54.215111 33.109333 108.487111 66.446222 162.702222 99.612445 2.844444-3.413333 49.379556 30.321778 49.379555 30.321778zM568.32 25.656889h318.464c28.444444 0 51.029333-20.081778 54.215111-47.047111a53.191111 53.191111 0 0 0-42.154667-58.140445 50.005333 50.005333 0 0 0-12.060444-1.194666h-637.155556a53.191111 53.191111 0 0 0-51.768888 36.238222c-7.395556 21.845333-0.512 46.648889 18.887111 59.164444 10.069333 6.314667 23.324444 10.752 35.043555 10.752 105.699556 0.739556 211.057778 0.227556 316.529778 0.227556z"  horiz-adv-x="1137" />

    
    <glyph glyph-name="iconmy8" unicode="&#58929;" d="M912.131172 519.840795c8.094353 70.50864-15.603572 159.253954-96.5471 249.559626C738.882764 854.878737 652.965597 894.814129 493.272793 895.984396c-103.129857 0.82894-200.895986-31.304666-276.085698-110.83412C153.066167 717.616067 124.248321 642.328833 134.29312 537.833663c1.072746-11.020023 1.706641-12.434096 12.58038-35.303081 9.752232-20.382166 10.971261-31.109621 2.389297-47.688416a1440.014628 1440.014628 0 0 1-24.624387-45.494164l-4.144699-8.094353c-16.432512-32.426173-23.844208-49.882668-23.210313-63.048182a47.103282 47.103282 0 0 1 9.947277-27.891384c8.630726-11.507634 21.796239-19.163137 39.00893-22.23509l-0.633896-35.25432c1.316551-11.702679 6.143906-21.162344 15.798617-28.866608-2.340536-13.750648 1.950446-29.646786 13.84817-46.323103l3.754609-5.071161c3.998415-5.607534 4.681072-8.289397 2.681864-15.506049a141.992503 141.992503 0 0 1-2.53558-35.498126c1.121507-18.334197 6.241429-33.206351 19.260659-42.617256 4.242221-3.900893 10.386127-7.850547 18.578002-11.263828 21.942523-9.167098 53.100905-12.336574 95.27931-7.11913 3.559565 0.43885 7.509219 0.975223 15.213483 2.194253 15.359766 2.243013 25.355804 3.023192 35.108036 2.194252 14.628349-1.219029 25.063237-6.095145 33.011307-16.091183 0-0.341328 3.023192-5.266205 6.875323-11.848963a1006.674184 1006.674184 0 0 0 26.038461-46.956998c10.239844-20.089599 16.871362-35.985737 18.139152-43.592479l6.533996-39.350258 32.036083 23.746686a1109.413952 1109.413952 0 0 0 120.927681 74.799622c53.929845 28.671563 106.5919 50.516564 155.499345 62.853138l11.117545 2.633103 26.818639 6.046384-9.21586 25.940938a213.086277 213.086277 0 0 0-6.485234 24.478103c-9.898516 46.030537-10.239844 94.937982 5.07116 139.944534 5.851339 17.21269 13.896931 33.352635 24.283059 48.322311a898.083077 898.083077 0 0 1 47.737177 71.33758c9.459665 15.798616 17.895346 31.109621 25.063237 45.835492 14.823393 30.475726 23.697925 57.050559 25.063238 79.626977a124.340962 124.340962 0 0 1 0.975223 7.167891zM756.583066 446.406485a74.750861 74.750861 0 0 0-70.898729-72.166519 73.141743 73.141743 0 0 0-43.397434 11.605156 74.263249 74.263249 0 0 0-33.937769 63.974645 74.7021 74.7021 0 0 0 70.898729 72.166519 73.190504 73.190504 0 0 0 64.706062-32.523695c8.094353-11.897723 12.482857-26.184744 12.629141-40.520525v-2.535581z m-194.557035 166.763173a121.415293 121.415293 0 0 0-18.87057-62.072959 123.707067 123.707067 0 0 0-98.595069-57.53817 122.292994 122.292994 0 0 0-128.095572 121.073964v4.242221a123.707067 123.707067 0 0 0 117.5144 119.61113A122.292994 122.292994 0 0 0 562.026031 617.460641L562.026031 613.169658z m160.668028-102.83729a73.239265 73.239265 0 0 1-43.397434 11.702679A74.604577 74.604577 0 0 1 608.349134 449.819767a74.214488 74.214488 0 0 1 33.889008-63.974645c12.775424-8.289397 28.183951-12.434096 43.397434-11.702678a74.604577 74.604577 0 0 1 70.898729 72.264041v2.486819a74.165727 74.165727 0 0 1-33.889008 61.439064z m-40.227959-122.634321a59.732423 59.732423 0 1 0 0 119.513607 59.732423 59.732423 0 0 0 0-119.464846zM505.853172 719.176424a121.220248 121.220248 0 0 1-71.922713 19.358181c-39.691586-1.511596-77.627769-23.892969-98.595069-57.538171a121.756621 121.756621 0 0 1 1.999207-133.459299c9.21586-13.701886 21.308628-25.59961 35.303082-34.620425 21.113583-13.799409 46.664432-20.57721 71.922713-19.30942a123.707067 123.707067 0 0 1 98.595069 57.538171c11.800201 18.48048 18.285436 40.179197 18.821809 62.072959v4.193459a122.97565 122.97565 0 0 1-56.075336 101.764545z m-66.656508-206.259714A102.105873 102.105873 0 1 0 439.147903 717.030933a102.105873 102.105873 0 0 0 0-204.211745z m331.527139-30.036876l-3.705848 8.289398 11.556395 15.9449c0.487612 0.487612-0.195045 1.072746-0.438851 1.462834a1235.120227 1235.120227 0 0 0-7.16789 10.239844c-6.436473-1.755402-12.775424-3.754609-19.260659-5.558772a2.09673 2.09673 0 0 0-0.341328-0.097522 249.072014 249.072014 0 0 1-7.996831 7.509219c-0.780179 0.82894-2.09673 1.26779-2.53558 2.340535 1.121507 6.436473 2.53558 12.775424 3.657087 19.163137-3.900893 2.291775-7.899308 4.63231-11.946485 6.875324l-14.28702-12.434097c-0.82894-0.975223-1.950446 0.097522-2.92567 0.292567-3.949654 1.706641-8.191875 2.633103-12.336574 3.75461l-4.876116 19.114375c-4.486027 0.341328-8.874531 0.780179-13.409319 1.072746h-0.39009l-7.655502-17.554018-0.243806-0.536373a105.177826 105.177826 0 0 1-12.19029-1.462835c0 0.097522-0.097522 0.195045-0.195045 0.292567-3.998415 5.119922-7.948069 10.142322-11.848962 15.311005l-4.778594-1.560357-8.38692-2.876909v-19.163137c-0.097522-0.195045-0.243806-0.585134-0.243806-0.828939-2.876909-1.852924-6.046384-3.266998-8.874531-5.314967l-6.777802-4.876116c-6.192668 2.681864-12.287813 5.558772-18.431719 8.289397-3.071953-3.315759-6.192668-6.533996-9.264621-9.898515l-0.048761-0.39009c3.023192-5.948862 6.241429-11.75144 9.264621-17.700301l-2.145491-3.413282c-1.950446-3.071953-3.852132-6.192668-5.363728-9.605949-0.243806-0.780179-1.316551-0.487612-1.999207-0.633895a2318.59324 2318.59324 0 0 1-18.626764-0.487611 29.646786 29.646786 0 0 1-0.585134-1.999208l-3.315759-10.48365c-0.487612-0.82894 0.585134-1.26779 1.072745-1.657879 5.0224-3.657087 10.044799-7.460458 15.067199-11.068784-0.780179-4.876116-0.975223-9.849755-1.219029-14.774632-6.046384-3.071953-12.044007-6.046384-18.04163-9.167098l-0.146283-0.048762 1.950446-13.653125 19.943316-3.900893c1.365313-4.095938 2.681864-8.240636 4.388504-12.19029-4.290982-5.46125-8.777009-10.873739-13.165514-16.334989l7.314175-11.702679 1.219029 0.292567 19.358181 4.583549 2.876909-3.266998c3.169476-3.413281 6.582757-6.680279 10.239843-9.605949-1.219029-6.826563-2.681864-13.653125-3.900892-20.528449 3.998415-2.243013 7.948069-4.63231 11.946484-6.826562 5.168683 4.437266 10.239844 9.167098 15.652333 13.45808 3.998415-1.26779 7.899308-2.92567 12.092768-3.754609 0.536373-0.195045 1.560357-0.146283 1.65788-0.975224 1.706641-6.485235 3.218237-13.01923 5.022399-19.504464l13.653126-1.121507 0.585134 1.365313c2.584342 5.753817 5.119922 11.702679 7.753024 17.505257h0.341328c4.242221 0.292567 8.435681 0.82894 12.58038 1.657879 3.998415-5.071161 7.996831-10.142322 11.897724-15.262243a153.597659 153.597659 0 0 1 4.778593 1.560357l8.338159 2.876908 0.048761 12.872947v6.29019c0.097522 0.195045 0.195045 0.585134 0.195045 0.82894 2.92567 1.852924 6.095145 3.266998 8.874531 5.314966l6.826563 4.876116c6.143906-2.730625 12.239052-5.558772 18.431719-8.289397 3.071953 3.315759 6.192668 6.533996 9.21586 9.849755l0.097522 0.487611c-3.071953 5.851339-6.241429 11.702679-9.264621 17.651541l2.09673 3.413281 0.146284-0.146283c2.09673 3.315759 3.949654 6.582757 5.558772 10.044799l20.284643 0.585134a32.669978 32.669978 0 0 1 0.633896 2.194252c1.121507 3.657087 2.340536 7.314174 3.413281 10.971261l-16.286228 11.995246v0.243806c0.877701 4.778594 0.975223 9.752232 1.316551 14.628349 6.046384 2.974431 12.044007 6.095145 18.04163 9.215859l-0.048761 0.097522c-0.682656 4.486027-1.170268 9.020815-1.950447 13.506842-6.631518 1.26779-13.165514 2.53558-19.74827 3.900893-1.316551 2.681864-1.901685 5.656295-3.023192 8.435681z m-187.096578 13.653125c-5.119922 9.849755-10.386127 19.504465-15.457288 29.35422 1.170268 1.852924 2.438058 3.705848 3.559565 5.607533a0.877701 0.877701 0 0 0 0.243806-0.146283 144.82065 144.82065 0 0 1 9.26462 16.627556c11.215067 0.341328 22.332612 0.585134 33.498919 0.975223l1.121506 3.608326c1.852924 6.046384 3.852132 12.092768 5.656295 18.187914l-27.013684 19.943315 0.097523 0.390089c1.365313 7.948069 1.560357 16.091183 2.09673 24.283059 9.947277 4.876116 19.894554 9.996038 29.793069 15.11596v0.292567c-1.219029 7.411697-1.950446 14.969677-3.266997 22.381373-10.9225 2.047969-21.942523 4.144699-32.767501 6.485235-2.09673 4.486027-3.120714 9.362143-5.0224 13.994453-2.047969 4.534788-4.047176 9.118337-6.143906 13.653125l19.211898 26.526072c0.731417 0.780179-0.390089 1.706641-0.731418 2.438058l-6.924085 9.898516-4.973638 7.021607c-10.678694-2.92567-21.162344-6.192668-31.792278-9.167098l-0.585134-0.146283a471.520434 471.520434 0 0 1-13.311797 12.385335c-1.26779 1.414074-3.413281 2.09673-4.144699 3.900893 1.852924 10.581172 4.144699 21.162344 6.046385 31.694755l-19.748271 11.410111c-7.899308-6.826563-15.749855-13.799409-23.697925-20.625971-1.365313-1.560357-3.169476 0.195045-4.729832 0.487612-6.680279 2.779386-13.653125 4.388505-20.479688 6.241428l-8.045592 31.694756c-7.460458 0.536373-14.823393 1.316551-22.283851 1.755401h-0.682656l-12.677902-29.110413-0.487612-0.877701c-6.680279-0.487612-13.409319-1.316551-20.040837-2.438058l-0.438851 0.536373c-6.582757 8.484442-13.165514 16.822601-19.601987 25.355804-2.681864-0.780179-5.314967-1.657879-7.948069-2.584342-4.63231-1.560357-9.21586-3.218237-13.84817-4.729833l-0.048761-21.308627c0-3.510804 0-6.924085-0.097522-10.434889-0.048761-0.390089-0.243806-1.023984-0.243806-1.414074-4.778594-3.071953-10.09356-5.412489-14.725871-8.777009l-11.215067-8.094353c-10.239844 4.486027-20.333404 9.21586-30.62201 13.653126-5.071161-5.363728-10.239844-10.727456-15.262243-16.237467l-0.195045-0.682656c5.119922-9.849755 10.386127-19.504465 15.457288-29.35422l-3.608326-5.607533a120.830159 120.830159 0 0 1-8.777009-15.9449c-0.487612-1.316551-2.291775-0.780179-3.413281-1.072746-10.239844-0.243806-20.625971-0.487612-30.865816-0.82894-0.390089-1.072746-0.682656-2.194252-1.023984-3.266997l-5.46125-17.358974c-0.82894-1.365313 1.023984-2.047969 1.706641-2.779386 8.435681-5.997623 16.725078-12.287813 25.063237-18.285436l0.048761-0.048761c-1.365313-8.094353-1.706641-16.286228-2.09673-24.478103l-29.890592-15.11596c0-0.097522-0.146283-0.097522-0.195045-0.146284 1.023984-7.509219 2.047969-15.018438 3.218237-22.576418 10.9225-2.194252 22.088806-4.242221 33.011306-6.485234 2.243013-6.826563 4.486027-13.653125 7.314174-20.187121-7.167891-9.069576-14.482065-18.04163-21.796239-27.111206 4.047176-6.485235 8.094353-12.921708 12.190291-19.30942l1.950446 0.487612c10.629933 2.438058 21.357389 4.924877 31.987322 7.460457l4.778594-5.363728c5.266205-5.656295 10.9225-11.020023 17.066407-15.847377-2.09673-11.410112-4.534788-22.67394-6.582757-34.084052 6.631518-3.657087 13.165514-7.655502 19.845793-11.361351 8.630726 7.411697 16.968884 15.262244 25.940938 22.332612 6.680279-2.047969 13.116753-4.827355 19.992076-6.192667 0.975223-0.390089 2.633103-0.243806 2.828147-1.560357 2.779386-10.776217 5.363728-21.649956 8.338159-32.426173 7.606741-0.536373 15.11596-1.219029 22.576418-1.852924l0.975223 2.194252 12.824186 29.061653a168.372291 168.372291 0 0 1 21.454911 2.828147c6.631518-8.435681 13.165514-16.822601 19.601987-25.355804 2.681864 0.780179 5.363728 1.657879 7.99683 2.584341l13.84817 4.729833v21.308628l0.048761 10.434888a6.680279 6.680279 0 0 1 0.292567 1.365313c4.827355 3.120714 10.09356 5.46125 14.774632 8.777009 3.705848 2.730625 7.509219 5.363728 11.215068 8.143114 10.239844-4.486027 20.333404-9.264621 30.573248-13.701886 5.119922 5.412489 10.288605 10.776217 15.311005 16.286228l0.146283 0.585133z m-0.341328-447.822509a1157.736263 1157.736263 0 0 1-100.106665-59.878706 476.884162 476.884162 0 0 1-11.215067 23.405357c-2.438058 4.681072-4.924877 9.508427-7.606741 14.433304a1054.460123 1054.460123 0 0 1-28.96413 50.223997c-18.675525 23.746686-41.593271 34.327858-68.655716 36.619632-14.433304 1.219029-27.550056 0.243806-46.323104-2.53558-7.996831-1.219029-11.215067-1.657879-14.140737-2.047969-34.230336-4.19346-57.050559-1.950446-70.459878 3.705848-3.36452 1.414074-4.095938 1.950446-3.218237 0.975223l-5.948862 5.0224c2.291775-1.365313 1.462835 0.780179 1.170268 5.997623a95.133027 95.133027 0 0 0 1.316552 21.454911c5.851339 20.821016 1.462835 38.033706-10.386128 54.710024l-3.900893 5.363727c-3.998415 5.510011-5.071161 7.801786-5.558772 8.094353 6.972846 10.9225 7.704264 22.430134 2.779386 32.182367-2.681864 4.486027-2.681864 4.486027-5.0224 6.972846l-4.095937 4.144699-5.510012 1.852924a29.256697 29.256697 0 0 0-3.218236 1.219029l0.585134 25.355804c2.09673 14.823393-0.877701 28.866608-9.65471 38.667601a30.914577 30.914577 0 0 1-18.919331 10.434889c-13.653125 0.390089-18.285436 2.340536-19.894554 4.388505 1.462835 5.071161 8.777009 22.23509 17.65154 39.789108l3.900893 7.655502a1392.374973 1392.374973 0 0 0 24.185537 44.665224c17.456496 33.547679 14.482065 59.19605-1.219029 91.963551-7.070368 14.872154-7.801786 16.578795-7.996831 18.968092-8.679487 89.81806 14.920915 151.354646 69.6797 209.136623C317.244999 820.063268 402.138181 847.954652 492.833942 847.223235c145.795874-1.072746 218.791333-35.010514 286.471825-110.39527 40.520525-45.201597 65.193673-90.988328 77.140158-135.751075 8.045592-30.23192 9.508427-56.026575 7.216652-75.677323a62.560571 62.560571 0 0 0-0.682656-4.681071l-0.487612-4.144699c-0.633895-14.774632-7.704264-36.375827-20.284643-62.219242a555.389632 555.389632 0 0 0-23.064029-42.080883 850.053333 850.053333 0 0 0-45.347881-67.778015c-13.653125-19.553226-23.697925-39.837869-31.012099-61.244019-18.529241-54.612501-18.139152-112.004389-6.582757-165.885472l1.072746-4.876116c-49.443818-13.799409-101.276933-35.790693-153.987749-63.7796z"  horiz-adv-x="1024" />

    
    <glyph glyph-name="i" unicode="&#58930;" d="M415.573333 477.44v-541.866667c0-31.061333 30.976-62.037333 61.952-62.037333s61.866667 30.976 61.866667 61.952V477.44c0 30.976-30.890667 61.952-61.866667 61.952s-61.952-30.976-61.952-61.952zM384.597333 802.645333a92.928 92.928 0 1 1 185.770667 0 92.928 92.928 0 0 1-185.770667 0z"  horiz-adv-x="1024" />

    
    <glyph glyph-name="icon" unicode="&#58931;" d="M1115.904 896L465.152 155.477333 132.608 447.744 0 296.874667 483.413333-128l783.36 891.392z"  horiz-adv-x="1280" />

    
    <glyph glyph-name="icon-time" unicode="&#58932;" d="M512-128c-282.77 0-512 229.23-512 512s229.23 512 512 512c282.77 0 512-229.23 512-512 0-282.77-229.23-512-512-512zM512 837.952c-250.711 0-453.952-203.241-453.952-453.952s203.241-453.952 453.952-453.952c250.711 0 453.952 203.241 453.952 453.952 0 250.711-203.241 453.952-453.952 453.952zM774.272 255.616c-4.937-10.36-15.325-17.392-27.354-17.392-4.662 0-9.077 1.056-13.020 2.942l-240.394 80.37c-10.323 4.914-17.331 15.261-17.331 27.245 0 0.615 0.018 1.225 0.055 1.831-0.132 1.197-0.644 2.157-0.644 3.373v332.352c0 0 0 0 0 0 0 16.683 13.525 30.208 30.208 30.208 16.683 0 30.208-13.525 30.208-30.208 0-0 0-0 0-0v-315.712l223.744-74.816c15.104-7.040 21.632-25.024 14.528-40.192z"  horiz-adv-x="1024" />

    
    <glyph glyph-name="icon-income" unicode="&#58933;" d="M512-127.999c-0.21-0-0.459-0-0.708-0-141.163 0-268.94 57.314-361.329 149.942-92.648 92.401-149.963 220.169-149.963 361.324 0 0.258 0 0.516 0.001 0.775-0 0.162-0.001 0.402-0.001 0.641 0 141.171 57.314 268.956 149.942 361.356 92.401 92.648 220.169 149.963 361.323 149.963 0.258 0 0.516-0 0.775-0.001 0.178 0 0.436 0.001 0.694 0.001 141.155 0 268.923-57.315 361.302-149.941 92.648-92.372 149.964-220.115 149.964-361.245 0-0.286-0-0.572-0.001-0.859 0-0.15 0-0.38 0-0.611 0-141.18-57.313-268.973-149.942-361.383-92.39-92.647-220.15-149.962-361.296-149.962-0.268 0-0.535 0-0.803 0.001zM512 843.199c-253.184 0-459.199-206.016-459.199-459.199s206.016-459.199 459.199-459.199 459.199 206.016 459.199 459.199-206.016 459.199-459.199 459.199zM675.008 376.384h-327.040c-0.388-0.020-0.843-0.032-1.3-0.032-14.598 0-26.432 11.834-26.432 26.432 0 14.598 11.834 26.432 26.432 26.432 0.457 0 0.912-0.012 1.364-0.035l326.976 0.003c0.388 0.020 0.843 0.032 1.3 0.032 14.598 0 26.432-11.834 26.432-26.432 0-14.598-11.834-26.432-26.432-26.432-0.457 0-0.912 0.012-1.364 0.035zM675.008 253.376h-327.040c-14.028 0.712-25.132 12.259-25.132 26.4s11.104 25.688 25.068 26.397l327.103 0.003c0.388 0.020 0.843 0.032 1.3 0.032 14.598 0 26.432-11.834 26.432-26.432 0-14.598-11.834-26.432-26.432-26.432-0.457 0-0.912 0.012-1.364 0.035zM510.976 106.88c-0.019-0-0.042-0-0.064-0-14.563 0-26.368 11.805-26.368 26.368 0 0.023 0 0.045 0 0.068l-0 259.196c0 14.598 11.834 26.432 26.432 26.432 14.598 0 26.432-11.834 26.432-26.432v-259.2c0-14.598-11.834-26.432-26.432-26.432zM511.488 366.080c-9.286 0.002-17.45 4.803-22.146 12.058l-151.101 234.661c-2.635 4.042-4.203 8.99-4.203 14.304 0 14.604 11.839 26.443 26.443 26.443 9.29 0 17.461-4.791 22.178-12.037l151.038-234.726c2.657-4.047 4.238-9.007 4.238-14.336 0-14.563-11.805-26.368-26.368-26.368-0.027 0-0.055 0-0.082 0zM511.68 366.080c-0.004-0-0.009-0-0.014-0-14.563 0-26.368 11.805-26.368 26.368 0 5.329 1.581 10.289 4.299 14.436l150.914 234.523c4.863 6.616 12.615 10.862 21.359 10.862 14.598 0 26.432-11.834 26.432-26.432 0-4.794-1.276-9.289-3.507-13.166l-150.844-234.431c-4.766-7.322-12.911-12.096-22.172-12.096-0.035 0-0.070 0-0.106 0z"  horiz-adv-x="1024" />

    
    <glyph glyph-name="icon-comp" unicode="&#58934;" d="M74.753 896h853.118c23.68 0 42.816-19.072 42.816-42.688v-938.622c0-0.057 0-0.125 0-0.193 0-23.47-19.026-42.496-42.496-42.496-0.113 0-0.225 0-0.338 0.001l-853.101-0c-0.019-0-0.041-0-0.064-0-23.576 0-42.688 19.112-42.688 42.688 0 0 0 0 0 0l-0 938.622c0 23.488 18.752 42.688 42.752 42.688zM202.753 768h597.183c23.616 0 42.752-18.688 42.752-42.816v-213.056c0-23.68-19.008-42.816-42.752-42.816h-597.247c-0.077-0-0.167-0.001-0.258-0.001-23.435 0-42.432 18.997-42.432 42.432 0 0.135 0.001 0.27 0.002 0.405l-0 213.099c0 23.552 18.944 42.752 42.688 42.752zM202.689 512.129c0-0.32 597.247-0.128 597.247-0.128 0.128 0 0.064 213.184 0.064 213.184 0 0.32-597.311 0.128-597.311 0.128v-213.184zM74.689-85.31h853.182c0.32 0 0.128 938.622 0.128 938.622h-853.246c-0.256 0-0.064-938.622-0.064-938.622zM672 661.568c0 11.648 9.92 21.12 21.312 21.12 0.076 0.001 0.166 0.002 0.256 0.002 11.664 0 21.12-9.456 21.12-21.12 0-0.001-0-0.001-0-0.002l0-85.76c0-11.648-9.92-21.12-21.376-21.12-0.057-0.001-0.124-0.001-0.192-0.001-11.664 0-21.12 9.456-21.12 21.12 0 0 0 0.001 0 0.001l-0 85.76zM160.001 362.689c0 11.712 9.152 21.312 20.928 21.312h128.832c11.52 0 20.928-9.92 20.928-21.312 0.002-0.114 0.004-0.249 0.004-0.384 0-11.572-9.364-20.957-20.928-20.992l-128.835-0c-11.611 0.251-20.928 9.723-20.928 21.371 0 0.002 0 0.003 0 0.005zM416 362.689c0 11.712 9.152 21.312 20.928 21.312h128.832c11.52 0 20.928-9.92 20.928-21.312 0.002-0.114 0.004-0.249 0.004-0.384 0-11.572-9.364-20.957-20.928-20.992l-128.835-0c-11.611 0.251-20.928 9.723-20.928 21.371 0 0.002 0 0.003 0 0.005zM672 362.689c0 11.776 9.152 21.312 20.928 21.312h128.832c11.52 0 20.928-9.92 20.928-21.312 0.002-0.114 0.004-0.249 0.004-0.384 0-11.572-9.364-20.957-20.928-20.992l-128.835-0c-11.611 0.251-20.928 9.723-20.928 21.371 0 0.002 0 0.003 0 0.005zM160.001 192.001c0 11.776 9.152 21.312 20.928 21.312h128.832c11.52 0 20.928-9.856 20.928-21.312 0.002-0.095 0.002-0.208 0.002-0.32 0-11.572-9.363-20.957-20.927-20.992l-128.835-0c-11.591 0.251-20.895 9.69-20.928 21.31zM416 192.001c0 11.776 9.152 21.312 20.928 21.312h128.832c11.52 0 20.928-9.856 20.928-21.312 0.002-0.095 0.002-0.208 0.002-0.32 0-11.572-9.363-20.957-20.927-20.992l-128.835-0c-11.591 0.251-20.895 9.69-20.928 21.31zM672 192.001c0 11.776 9.152 21.312 20.928 21.312h128.832c11.52 0 20.928-9.856 20.928-21.312 0.002-0.095 0.002-0.208 0.002-0.32 0-11.572-9.363-20.957-20.927-20.992l-128.835-0c-11.591 0.251-20.895 9.69-20.928 21.31zM160.001 21.314c0 11.776 9.152 21.376 20.928 21.376h128.832c11.52 0 20.928-9.92 20.928-21.376 0.002-0.095 0.002-0.208 0.002-0.32 0-11.572-9.363-20.957-20.927-20.992l-128.835-0c-11.591 0.251-20.895 9.69-20.928 21.31zM416 21.314c0 11.776 9.728 21.376 21.76 21.376h383.167c0.001 0 0.002 0 0.003 0 11.883 0 21.541-9.525 21.756-21.356-0.108-11.814-9.693-21.334-21.503-21.334-0.090 0-0.18 0.001-0.271 0.002l-383.154-0c-0.001-0-0.003-0-0.005-0-11.86 0-21.504 9.489-21.755 21.289z"  horiz-adv-x="1024" />

    
    <glyph glyph-name="icon-waiting" unicode="&#58935;" d="M188.672 632.256c0-17.088 10.88-40.32 23.296-51.2l218.752-197.056-218.752-197.056c-12.416-10.88-23.296-34.112-23.296-51.2v-217.216h620.608v217.216c0 17.088-10.88 40.32-23.232 51.2l-218.752 197.056 218.752 197.056c12.416 10.88 23.232 34.112 23.232 51.2v217.216h-620.608v-217.216zM744.192 142.016l3.072-6.272v-155.136h-496.512v155.136l3.136 6.208 245.12 220.352 245.12-220.352zM250.688 787.328h496.512v-155.136l-3.136-6.208-245.12-220.352-245.12 220.352-3.136 6.208v155.2zM917.888 896h-837.76c-0 0-0 0-0 0-8.567 0-15.516-6.926-15.552-15.485l-0-15.555c0-9.28 6.208-15.488 15.488-15.488h837.824c0-0 0-0 0-0 8.567 0 15.516 6.926 15.552 15.485l0 15.555c0 9.28-6.208 15.488-15.552 15.488zM80.128-81.472c-0 0-0 0-0 0-8.567 0-15.516-6.926-15.552-15.485l-0-15.555c0-9.28 6.208-15.488 15.488-15.488h837.824c0-0 0-0 0-0 8.567 0 15.516 6.926 15.552 15.485l0 15.555c0 9.28-6.208 15.488-15.552 15.488h-837.76zM467.968 290.88h31.040v-62.080h-31.040v62.080zM530.048 182.272h31.040v-62.080h-31.040v62.080z"  horiz-adv-x="1024" />

    
    <glyph glyph-name="icon1" unicode="&#58936;" d="M876.629333 753.322667a66.645333 66.645333 0 0 1-44.8 17.066666h-4.522666a603.392 603.392 0 0 0-159.402667 13.141334C602.453333 799.061333 527.104 871.082667 505.173333 885.248a67.413333 67.413333 0 0 1-73.045333 0.085333c-2.645333-1.706667-81.578667-83.456-158.890667-101.802666a611.157333 611.157333 0 0 0-160.426666-13.141334h-4.266667a67.072 67.072 0 0 1-45.056-17.066666 62.549333 62.549333 0 0 1-20.821333-46.421334v-158.890666c0-587.52 397.482667-663.210667 414.378666-666.197334a72.874667 72.874667 0 0 1 23.210667 0c16.896 2.986667 417.28 78.677333 417.28 666.197334V706.901333a62.549333 62.549333 0 0 1-20.906667 46.421334zM729.685333 526.08L454.144 259.413333a40.96 40.96 0 0 0-35.84-19.370666 40.96 40.96 0 0 0-35.669333 19.370666L235.349333 401.92a37.888 37.888 0 0 0 0 54.954667 41.216 41.216 0 0 0 56.746667 0l126.293333-122.197334 254.549334 246.272a41.216 41.216 0 0 0 56.746666 0 37.888 37.888 0 0 0 0-54.869333z"  horiz-adv-x="1024" />

    
    <glyph glyph-name="icon2" unicode="&#58937;" d="M512 896C229.236364 896 0 666.763636 0 384s229.236364-512 512-512 512 229.236364 512 512S794.763636 896 512 896z m293.701818-379.205818l-331.170909-331.124364a46.545455 46.545455 0 0 0-65.536 0l-190.650182 190.603637a46.266182 46.266182 0 0 0 0 65.489454 46.219636 46.219636 0 0 0 65.536 0l157.882182-157.789091 298.356364 298.356364a46.359273 46.359273 0 0 0 65.582545-65.536z"  horiz-adv-x="1024" />

    
    <glyph glyph-name="icon3" unicode="&#58938;" d="M512 896C229.236364 896 0 666.763636 0 384s229.236364-512 512-512 512 229.236364 512 512S794.763636 896 512 896z m80.290909-700.369455c-38.632727-58.042182-77.963636-102.772364-144.104727-102.772363-45.149091 7.354182-63.674182 39.749818-53.899637 72.657454L479.418182 447.301818c2.048 6.888727-1.396364 14.289455-7.68 16.477091-6.283636 2.234182-18.618182-5.911273-29.230546-17.594182l-51.386181-61.858909c-1.396364 10.379636-0.186182 27.554909-0.186182 34.490182 38.632727 57.995636 102.120727 103.796364 145.175272 103.796364 40.96-4.189091 60.276364-36.910545 53.15491-72.890182l-85.643637-283.136c-1.163636-6.376727 2.187636-12.846545 8.005818-14.894546 6.330182-2.234182 19.549091 5.911273 30.208 17.594182l51.386182 61.858909c1.396364-10.379636-0.930909-28.625455-0.930909-35.514182z m-11.450182 367.988364c-32.581818 0-58.926545 23.691636-58.926545 58.647273 0 34.909091 26.391273 58.554182 58.926545 58.554182 32.535273 0 58.88-23.691636 58.88-58.600728 0-34.909091-26.344727-58.600727-58.88-58.600727z"  horiz-adv-x="1024" />

    
    <glyph glyph-name="qa" unicode="&#58939;" d="M0 768.384A127.701333 127.701333 0 0 0 127.616 896H896.426667A127.701333 127.701333 0 0 0 1024 768.384V-0.426667A127.701333 127.701333 0 0 0 896.384-128H127.573333A127.701333 127.701333 0 0 0 0-0.384V768.426667z m524.629333-92.885333c-87.552 0-155.648-29.184-205.909333-87.552-47.829333-55.125333-71.338667-126.464-71.338667-214.016 0-86.741333 23.509333-158.08 71.338667-213.205334 50.261333-57.557333 118.357333-86.741333 205.098667-86.741333 61.610667 0 114.304 15.402667 158.08 44.586667a3495.552 3495.552 0 0 0 66.474666-92.416l43.776 38.101333a2048.725333 2048.725333 0 0 1-66.474666 91.605333c0.810667 1.621333 2.432 3.242667 4.053333 4.864 47.018667 55.125333 71.338667 125.653333 71.338667 213.205334 0 88.362667-24.32 159.701333-71.338667 214.826666-50.261333 58.368-119.168 86.741333-205.098667 86.741334z m0-59.178667c66.474667 0 118.357333-21.888 155.648-66.474667 35.669333-43.776 54.314667-102.144 54.314667-175.914666 0-68.906667-16.213333-124.842667-48.64-167.808a2282.581333 2282.581333 0 0 1-98.901333 112.682666l-39.722667-38.101333c32.426667-34.048 64.853333-72.149333 97.28-113.493333-32.426667-22.698667-72.96-34.048-120.789333-34.048-66.474667 0-119.168 22.698667-156.458667 68.096-35.669333 43.776-53.504 101.333333-53.504 172.672 0 72.149333 17.834667 129.706667 53.504 173.482666 38.101333 46.208 90.794667 68.906667 157.269333 68.906667z"  horiz-adv-x="1024" />

    
    <glyph glyph-name="qa1" unicode="&#58940;" d="M42.666667 768.384V-0.426667C42.666667-47.232 80.725333-85.333333 127.616-85.333333H896.426667A85.034667 85.034667 0 0 1 981.333333-0.384V768.426667A85.034667 85.034667 0 0 1 896.384 853.333333H127.573333A85.034667 85.034667 0 0 1 42.666667 768.384z m-42.666667 0A127.701333 127.701333 0 0 0 127.616 896H896.426667A127.701333 127.701333 0 0 0 1024 768.384V-0.426667A127.701333 127.701333 0 0 0 896.384-128H127.573333A127.701333 127.701333 0 0 0 0-0.384V768.426667z m483.797333-104.234667L256 85.333333h71.338667l61.610666 162.133334h265.898667l61.610667-162.133334h72.149333L560.810667 664.149333h-77.013334zM410.026667 303.402667l111.061333 289.408h3.242667l109.44-289.408H410.026667z"  horiz-adv-x="1024" />

    
    <glyph glyph-name="user-icon" unicode="&#58941;" d="M512-81.454545c257.070545 0 465.454545 208.384 465.454545 465.454545S769.070545 849.454545 512 849.454545 46.545455 641.070545 46.545455 384s208.384-465.454545 465.454545-465.454545z m0-46.545455C229.236364-128 0 101.236364 0 384S229.236364 896 512 896s512-229.236364 512-512-229.236364-512-512-512z m-116.270545 462.522182c48.64-39.749818 103.749818-53.713455 164.95709-36.584727 44.730182 12.567273 79.313455 40.168727 106.542546 77.125818 37.562182 50.920727 53.713455 108.823273 54.318545 171.566545a295.563636 295.563636 0 0 1-11.496727 83.549091c-15.080727 52.224-41.239273 97.745455-84.759273 131.351273-59.717818 46.08-124.788364 54.458182-193.210181 21.317818-43.287273-20.945455-74.007273-55.482182-95.744-97.698909-36.445091-70.842182-42.589091-145.221818-21.783273-221.649455 13.917091-51.060364 39.842909-95.185455 81.175273-128.977454z m-24.901819 331.310545a191.674182 191.674182 0 0 0 52.968728 66.187637c54.830545 43.426909 124.788364 42.914909 178.874181-1.536 34.024727-28.020364 55.109818-64.512 67.723637-106.216728 7.68-25.227636 11.264-51.106909 11.170909-77.544727-0.465455-54.597818-14.103273-105.239273-46.685091-149.783273-21.643636-29.602909-49.058909-52.084364-84.805818-62.277818-49.664-14.103273-93.556364-1.489455-132.002909 31.464727-33.140364 28.485818-53.573818 65.163636-64.930909 106.868364-18.059636 66.327273-12.986182 130.885818 17.687272 192.837818zM139.636364 58.181818h46.545454c0 68.328727 142.568727 139.636364 325.818182 139.636364s325.818182-71.307636 325.818182-139.636364h46.545454c0 102.865455-166.725818 186.181818-372.363636 186.181818s-372.363636-83.316364-372.363636-186.181818z"  horiz-adv-x="1024" />

    
    <glyph glyph-name="icondowns" unicode="&#58942;" d="M199.522 299.559v596.441h213.071v-596.441h199.522l-306.018-408.025-306.097 408.025h199.522zM714.201 14.257h544.768v-122.407h-544.768v122.407zM714.201 308.066h434.57v-122.407h-434.57v122.407zM714.201 601.876h324.45v-122.407h-324.45v122.407zM717.351 895.685h116.106v-122.407h-116.106v122.407z"  horiz-adv-x="1260" />

    
    <glyph glyph-name="iconups" unicode="&#58943;" d="M0 487.975l306.255 408.025 306.018-408.025h-199.601v-596.441h-213.071v596.519h-199.601zM714.279 14.257h544.768v-122.407h-544.768v122.407zM714.279 308.066h434.57v-122.407h-434.57v122.407zM714.279 601.876h324.372v-122.407h-324.372v122.407zM717.43 895.685h116.106v-122.407h-116.106v122.407z"  horiz-adv-x="1261" />

    
    <glyph glyph-name="iconer" unicode="&#58945;" d="M0.904 420.744h474.654v474.654h-474.654v-474.654zM68.728 827.573h339.064v-339.004h-339.064v339.004zM170.466 725.835h135.529v-135.529h-135.529v135.529zM1017.976 895.398h-474.654v-474.654h474.654v474.654zM950.212 488.568h-339.004v339.004h339.004v-339.004zM0.904-121.736h474.654v474.654h-474.654v-474.654zM68.728 285.154h339.064v-339.064h-339.064v339.125zM954.97 352.798v-203.294h-140.348v203.415h-271.3v-474.654h135.59v67.825h-67.765v339.125h135.529v-203.475h276.058v271.059h-67.825zM712.885 725.835h135.59v-135.529h-135.529v135.529zM170.466 183.416h135.529v-135.59h-135.529v135.59zM926.901-30.6h91.136v-91.136h-91.136v91.136zM757.399-30.6h91.076v-91.136h-91.076v91.136z"  horiz-adv-x="1024" />

    
    <glyph glyph-name="home" unicode="&#58946;" d="M1138.56 485.504L650.24 871.424c-41.344 32.768-106.176 32.768-147.584 0l-488.32-385.92a36.672 36.672 0 0 1 45.44-57.472l40.832 32.256v-442.816c0-60.544 49.28-109.824 109.824-109.824h732.096c60.544 0 109.824 49.28 109.824 109.824v442.88l40.832-32.32a36.352 36.352 0 0 1 51.392 6.08 36.608 36.608 0 0 1-6.016 51.392z m-563.84-504.64h-34.88v219.648c0 10.112 18.304 15.168 36.608 15.168s36.608-5.056 36.608-15.168v-219.648h-38.272zM979.2 493.44v-475.904a36.672 36.672 0 0 0-36.672-36.608h-256.256v219.648c0 42.624-34.368 88.384-109.824 88.384-75.392 0-109.824-45.76-109.824-88.32V-19.2H210.432a36.672 36.672 0 0 0-36.608 36.608V493.44a35.776 35.776 0 0 1-6.528 19.648l380.8 300.992c14.848 11.776 41.92 11.776 56.768 0l380.8-300.992a35.776 35.776 0 0 1-6.528-19.648z"  horiz-adv-x="1153" />

    
    <glyph glyph-name="icondowns1" unicode="&#58948;" d="M717.351-108.15h116.106v122.407h-116.106v-122.407zM714.201 185.659h324.45v122.407h-324.45v-122.407zM714.201 479.468h434.57v122.407h-434.57v-122.407zM714.201 773.278h544.768v122.407h-544.768v-122.407zM199.522 299.559v596.441h213.071v-596.441h199.522l-306.018-408.025-306.097 408.025h199.522z"  horiz-adv-x="1260" />

    
    <glyph glyph-name="iconups1" unicode="&#58949;" d="M1259.047-108.15h-544.768v122.407h544.768v-122.407zM1148.849 185.659h-434.57v122.407h434.57v-122.407zM1038.651 479.468h-324.372v122.407h324.372v-122.407zM833.536 773.278h-116.106v122.407h116.106v-122.407zM0 488.054l306.176 407.946 306.018-408.025h-199.522v-596.441h-213.071v596.519h-199.601z"  horiz-adv-x="1261" />

    
    <glyph glyph-name="se-iconx" unicode="&#58950;" d="M204.8 691.2h254.464v-102.4H204.8zM102.4 691.2v-614.4c0-84.7872 68.7104-153.6 153.344-153.6h512.512A153.6 153.6 0 0 1 921.6 76.8V691.2c0 84.7872-68.7104 153.6-153.344 153.6H255.744A153.6 153.6 0 0 1 102.4 691.2zM51.2 691.2a204.8 204.8 0 0 0 204.544 204.8h512.512A204.6976 204.6976 0 0 0 972.8 691.2v-614.4a204.8 204.8 0 0 0-204.544-204.8H255.744A204.6976 204.6976 0 0 0 51.2 76.8V691.2zM204.8 486.4h254.464v-102.4H204.8zM204.8 281.6h614.4v-102.4H204.8zM670.0032 519.68a76.8 76.8 0 0 0-76.6976 76.7488 76.8 76.8 0 0 0 76.6976 76.6976 76.8 76.8 0 0 0 76.6976-76.6976 76.8 76.8 0 0 0-76.6976-76.6976z m97.792-102.4512c0-28.8256-55.296-21.7088-107.6224-21.0432C610.2016 396.8 563.2 389.632 563.2 417.2288a102.4 102.4 0 0 0 102.2976 102.2976 102.4 102.4 0 0 0 102.2976-102.2976z"  horiz-adv-x="1024" />

    
    <glyph glyph-name="newsx" unicode="&#58951;" d="M931.043556 54.215111a22.414222 22.414222 0 0 0-11.377778 41.813333 346.453333 346.453333 0 0 1 171.804444 299.406223 346.453333 346.453333 0 0 1-169.187555 297.870222 22.471111 22.471111 0 0 0 22.926222 38.570667 391.509333 391.509333 0 0 0 191.146667-336.440889 391.395556 391.395556 0 0 0-193.991112-338.147556 22.300444 22.300444 0 0 0-11.377777-3.072z m-118.442667 145.408a22.414222 22.414222 0 0 0-11.377778 41.870222 177.607111 177.607111 0 0 1 64.284445 242.688 178.915556 178.915556 0 0 1-62.919112 63.658667 22.471111 22.471111 0 0 0 22.983112 38.570667 222.72 222.72 0 0 0-1.706667-383.658667 22.357333 22.357333 0 0 0-11.264-3.128889z m-174.648889-305.777778c-40.618667 0-80.952889 27.591111-86.698667 31.687111l-43.178666 30.151112a22.471111 22.471111 0 0 0 25.656889 36.807111l43.463111-30.321778c11.377778-8.078222 48.924444-29.411556 70.883555-21.959111 7.907556 2.730667 15.36 5.233778 16.270222 46.648889V801.962667c-2.275556 38.912-10.638222 42.666667-20.252444 47.047111-20.48 9.272889-55.296-12.686222-65.877333-21.105778l-0.568889-0.455111-267.491556-200.362667c-60.188444-49.038222-142.165333-46.990222-151.381333-46.535111A114.232889 114.232889 0 0 1 46.421333 480.312889l-1.536-15.473778v-140.515555l1.536-15.36a114.232889 114.232889 0 0 1 112.696889-100.238223h2.389334c77.482667 0 142.222222-42.496 145.066666-44.316444 4.152889-2.787556 101.034667-68.608 151.722667-178.460445a22.471111 22.471111 0 0 0-40.732445-18.830222c-44.714667 96.938667-132.949333 157.923556-135.907555 159.914667-2.104889 1.365333-58.652444 37.546667-122.083556 36.807111H159.288889a159.175111 159.175111 0 0 0-157.411556 139.832889l-0.056889 0.512L0 322.104889V467.114667l1.877333 18.488889A159.175111 159.175111 0 0 0 159.288889 625.379556h1.251555c0.682667-0.056889 72.817778-3.299556 121.571556 36.693333l0.796444 0.568889L550.513778 863.118222c2.503111 1.991111 16.270222 12.515556 34.588444 21.048889 29.013333 13.539556 55.864889 15.473778 77.539556 5.688889 10.979556-5.006222 22.357333-11.548444 31.288889-25.770667 8.874667-14.051556 13.653333-33.166222 15.246222-60.245333v-817.664c-0.739556-35.328-5.006222-74.24-46.648889-88.462222-8.021333-2.673778-16.327111-3.868444-24.576-3.868445z"  horiz-adv-x="1137" />

    
    <glyph glyph-name="close" unicode="&#58952;" d="M466.512842 385.562947L331.452632 520.515368a26.947368 26.947368 0 0 0 0 37.834106l6.144 6.144a26.731789 26.731789 0 0 0 37.834105 0L510.383158 429.487158l135.006316 135.006316a26.731789 26.731789 0 0 0 37.834105 0l6.144-6.144a26.947368 26.947368 0 0 0 0-37.834106L554.415158 385.616842l135.006316-135.006316a26.947368 26.947368 0 0 0 0-37.834105l-6.144-6.144a26.731789 26.731789 0 0 0-37.834106 0l-135.006315 135.006316-134.952421-135.006316a26.731789 26.731789 0 0 0-37.834106 0l-6.144 6.144a26.947368 26.947368 0 0 0 0 37.834105l135.006316 135.006316zM512-101.052632a485.052632 485.052632 0 1 0 0 970.105264 485.052632 485.052632 0 0 0 0-970.105264z m0 53.894737a431.157895 431.157895 0 1 1 0 862.31579 431.157895 431.157895 0 0 1 0-862.31579z"  horiz-adv-x="1024" />

    
    <glyph glyph-name="fenxiang" unicode="&#58953;" d="M894.390857 1.609143H81.724952V814.275048h325.046858V895.561143H0.487619v-975.238095h975.238095v406.381714h-81.286095v-325.095619zM610.011429 895.512381v-81.334857h186.368l-447.000381-446.902857 57.441523-57.392762 487.619048 487.521524V529.798095h81.286095V895.512381h-365.714285z m289.353142-87.381333l-6.095238 6.095238h6.095238V808.228571z"  horiz-adv-x="1024" />

    
    <glyph glyph-name="xiaoxi_normal" unicode="&#58954;" d="M511.437312 309.76l330.24 191.7952a28.6208 28.6208 0 0 0 38.8608-10.496 28.928 28.928 0 0 0-10.4448-39.0656l-340.736-197.7344a29.1328 29.1328 0 0 0-35.84-0.1024L152.576512 451.9936a28.9792 28.9792 0 0 0-10.3936 39.0656 28.672 28.672 0 0 0 38.8608 10.496l330.3424-191.744zM0.000512 576.512a114.688 114.688 0 0 0 33.1264 80.9984c21.2992 21.504 50.176 33.6384 80.384 33.6896h796.9792c30.208-0.0512 59.136-12.1856 80.384-33.7408 21.2992-21.504 33.2288-50.6368 33.1264-80.9472v-571.136a114.688 114.688 0 0 0-33.1264-80.9984c-21.248-21.504-50.176-33.6384-80.384-33.6896H113.510912a113.5104 113.5104 0 0 0-80.384 33.6896A114.688 114.688 0 0 0 0.000512 5.376V576.512z m56.8832 0v-571.0848a57.344 57.344 0 0 1 16.384-40.6016c10.6496-10.752 25.088-16.896 40.2432-16.9984h796.9792c15.104 0.1024 29.5424 6.1952 40.192 16.9984a57.344 57.344 0 0 1 16.384 40.5504V576.512a57.344 57.344 0 0 1-16.384 40.5504c-10.6496 10.752-25.088 16.896-40.192 16.9472H113.510912c-15.104-0.0512-29.5424-6.144-40.192-16.9472a57.344 57.344 0 0 1-16.384-40.5504z"  horiz-adv-x="1177" />

    
    <glyph glyph-name="yueduliang" unicode="&#58955;" d="M1208.149333 168.618667C1108.138667 55.552 935.68-79.189333 682.666667-79.189333c-253.013333 0-425.386667 134.826667-525.482667 247.808A961.877333 961.877333 0 0 0 0 413.866667c9.984 23.637333 58.88 132.266667 155.818667 239.786666C255.488 764.074667 427.861333 896 682.666667 896c254.890667 0 427.178667-131.84 526.848-242.346667A923.306667 923.306667 0 0 0 1365.333333 413.866667a952.234667 952.234667 0 0 0-157.184-245.248z m-60.928 424.362666C1059.072 690.773333 906.922667 807.338667 682.666667 807.338667S306.261333 690.773333 218.112 592.981333a848.810667 848.810667 0 0 1-123.221333-179.2c21.333333-42.069333 62.549333-114.432 125.098666-185.173333C308.48 128.682667 460.629333 9.386667 682.666667 9.386667s374.186667 119.296 462.677333 219.306666a886.357333 886.357333 0 0 1 125.098667 184.917334 857.6 857.6 0 0 1-123.221334 179.370666zM682.666667 142.506667c-141.397333 0-256 119.04-256 265.984 0 146.858667 114.602667 265.984 256 265.984 26.026667 0 50.602667-5.205333 74.24-12.8A133.12 133.12 0 0 1 682.666667 541.44c0-73.386667 57.344-132.949333 128-132.949333 51.370667 0 95.402667 31.573333 115.797333 77.056 7.168-24.576 12.202667-50.090667 12.202667-77.056 0-146.944-114.602667-265.984-256-265.984z"  horiz-adv-x="1365" />

    
    <glyph glyph-name="bianjiicon" unicode="&#58957;" d="M640.866462 787.062154l244.184615-249.383385-510.267077-521.058461L130.599385 265.846154l510.267077 521.137231z m0 108.701538a61.203692 61.203692 0 0 1-43.795693-19.140923L42.929231 310.744615a62.700308 62.700308 0 0 1 0-89.560615L330.830769-72.861538a61.203692 61.203692 0 0 1 43.874462-19.140924 61.203692 61.203692 0 0 1 43.795692 19.140924l554.141539 565.878153a62.700308 62.700308 0 0 1 0 89.560616L684.662154 876.622769a61.203692 61.203692 0 0 1-43.795692 19.140923zM102.4 160.452923l169.038769-172.662154-172.189538-6.301538 3.150769 178.963692z m-28.199385 166.203077c-28.120615-6.301538-56.32-35.131077-62.621538-63.881846l-9.373539-335.714462c-6.301538-25.6 6.301538-41.590154 28.199385-41.590154h9.452308l328.625231 9.609847c28.199385 6.380308 56.398769 35.209846 62.621538 63.960615L74.279385 326.734769zM784.856615 457.806769l-244.184615 249.304616a44.740923 44.740923 0 0 1-65.693538 0 47.025231 47.025231 0 0 1 0-67.111385l244.184615-249.383385a44.740923 44.740923 0 0 1 65.693538 0 47.025231 47.025231 0 0 1 0 67.190154z m165.96677-482.855384H606.444308a48.679385 48.679385 0 0 1-46.946462-47.891693c0-25.6 21.897846-47.970462 46.946462-47.970461h344.379077a48.679385 48.679385 0 0 1 46.946461 48.049231c0 28.672-18.825846 47.891692-46.946461 47.891692z"  horiz-adv-x="1024" />

    
    <glyph glyph-name="tuodongicon" unicode="&#58958;" d="M495.502222 886.215111L202.524444 521.728H412.444444v-436.565333h166.115556V521.671111h210.033778zM495.502222-118.215111l293.091556 364.487111H578.616889V682.837333H412.444444v-436.565333H202.410667z"  horiz-adv-x="1024" />

    
    </font>
</defs>
</svg>
